**ABCDEFGHIJKLMNOPQRSTUVWXYZabcdefghijklmnopqrstuvwxyz**************************
**PARASOLID !"#$%&'()*+,-./:;<=>?@[\]^_`{|}~0123456789**************************
**PART1;
MC=AMD64;
MC_MODEL=Intel64 Family 6 Model 141 Stepping 1, GenuineIntel;
MC_ID=unknown;
OS=Windows_NT;
OS_RELEASE=unknown;
FRU=Parasolid Version 34.1, build 247, 10- 7-2022;
APPL=SOLIDWORKS 2023-2023096;
SITE=;
USER=unknown;
FORMAT=text;
GUISE=transmit;
KEY=araba;
FILE=araba.x_t;
DATE=Sun Aug 20 00:54:00 2023;
**PART2;
SCH=SCH_3401247_34101;
USFLD_SIZE=0;
**PART3;
**END_OF_HEADER*****************************************************************
T51 : TRANSMIT FILE created by modeller version 340124723 SCH_3401247_34101_1300
6231 0 10 21 CCCCI7 lattice222 0 CCCI4 mesh1006 0 I8 polyline1008 0 CCCCCCCCCCA1
6 mesh_offset_data206 0 Z1 5 2 3 0 0 0 0 0 0 0 0 1e3 1e-8 0 0 0 1 0 1 4 0 81 255
 2 2 5 5 1 0 0 0 0 0 0 70 11 CI9 list_type0 0 1 uI10 notransmit0 0 1 lCCCDCCDI12
 finger_index0 0 1 dI12 finger_block1012 0 CZ3 0 4 T1 0 0 1 20 1 6 6 11 255 4 3
 0 1 7 8 1 9 0 0 0 12 36 CCCI7 lattice222 0 CCCI4 mesh1006 0 I8 polyline1008 0 C
CCCCCCDI5 owner1040 0 CCCI16 boundary_lattice222 0 CCCI13 boundary_mesh1006 0 I1
7 boundary_polyline1008 0 CCCA16 index_map_offset0 0 1 dA9 index_map82 0 A17 nod
e_id_index_map82 0 A20 schema_embedding_map82 0 A5 child12 0 A14 lowest_node_id0
 0 1 dA16 mesh_offset_data206 0 Z7 309 10 11 0 0 0 0 0 0 0 1e3 1e-8 4 12 0 1 0 1
 1 13 0 14 15 16 0 0 17 18 19 0 0 0 0 0 0 0 100 10 CCCCCCCCCA9 precision229 0 Z8
 4 4 0 0 1 0 0 0 1 0 0 0 1 0 0 0 1 0 ?0 11 9 1 0 1 12 20 1 0 4 0 0 12 12 1968 21
 22 0 0 0 0 0 0 0 1e3 1e-8 9 23 7 1 0 1 1 24 0 25 26 27 0 0 28 29 30 0 0 0 0 0 0
 0 100 20 2 9 0 0 1 0 0 0 1 0 0 0 1 0 0 0 1 0 ?0 81 1 21 1968 31 12 32 0 0 0 0 7
0 22 0 4 T12 0 0 5 20 1 33 33 13 255 24 119 0 12 0 34 0 0 35 0 54 255 25 1477 0
 36 37 0 38 +.055 -.0687828611492281 -.0560589294060892 -1 0 0 .1 .005 0 0 1 31
 255 26 1484 0 39 40 0 0 +.055 .0171996122270595 -.005 0 -.510589294060897 .8598
24733762873 0 -.859824733762873 -.510589294060897 .005 29 255 27 1294 0 30 41 0
 .055 .01719961222705945 0 19 9 CCCCCCI5 frame230 0 CA5 owner12 0 Z28 44 0 12 35
 0 42 0 V0 16 255 29 1308 0 ?43 0 44 45 0 0 12 18 255 30 1292 0 46 0 47 27 ?12 1
7 255 46 0 48 49 50 30 51 52 0 53 +18 47 1288 0 49 30 54 41 ?12 17 49 0 48 55 46
 47 56 57 0 58 +18 54 1273 0 55 47 59 60 ?12 29 41 1290 0 47 60 27 -.055 .017199
61222705945 0 29 60 1275 0 54 61 41 -.055 -.02 0 29 61 1272 0 59 62 60 .055 -.02
 0 18 59 1270 0 63 54 64 61 ?12 29 62 1260 0 64 65 61 .06 .03063839217844375 -.0
668020382091734 18 64 1258 0 66 59 67 62 ?12 29 65 1256 0 67 68 62 .06 .01719961
22270595 -.005 18 67 1254 0 69 64 70 65 ?12 29 68 1253 0 70 71 65 .06 -.02 -.005
 18 70 1251 0 72 67 73 68 ?12 29 71 1241 0 73 74 68 .055 .02149873589587385 -.00
2447053529695525 18 73 1239 0 75 70 76 71 ?12 29 74 1238 0 76 77 71 -.055 .02149
873589587385 -.002447053529695525 18 76 1236 0 78 73 79 74 ?12 29 77 1235 0 79 8
0 74 .055 .035 -.072 18 79 1233 0 81 76 82 77 ?12 29 80 1232 0 82 83 77 -.055 .0
35 -.072 18 82 1230 0 84 79 85 80 ?12 29 83 1220 0 85 86 80 -.06 .03063839217844
375 -.0668020382091734 18 85 1218 0 87 82 88 83 ?12 29 86 1216 0 88 89 83 -.06 .
0171996122270595 -.005 18 88 1214 0 90 85 91 86 ?12 29 89 1213 0 91 92 86 -.06 -
.02 -.005 18 91 1211 0 93 88 94 89 ?12 29 92 1144 0 94 95 89 -.06 -.02 -.0375 18
 94 1142 0 96 91 97 92 ?12 29 95 1027 0 97 98 92 .055 -.02 -.0825 18 97 1025 0 9
9 94 100 95 ?12 29 98 1024 0 100 101 95 .055 -.02 -.0375 18 100 1022 0 102 97 10
3 98 ?12 29 101 1018 0 103 104 98 .06 -.02 -.0825 18 103 1016 0 105 100 106 101
 ?12 29 104 820 0 106 107 101 .047 .01552938746002765 -.025 18 106 818 0 108 103
 109 104 ?12 29 107 608 0 109 110 104 -.055 -.00846678534724873 -.115 18 109 606
 0 111 106 112 107 ?12 29 110 421 0 112 113 107 .055 -.01442555331021976 -.12 18
 112 419 0 114 109 115 110 ?12 29 113 400 0 115 116 110 -.055 .0382139380484327
 -.0758302222155949 18 115 398 0 117 112 118 113 ?12 29 116 41 0 118 119 113 .06
 -.02 -.12 18 118 39 0 120 115 121 116 ?12 29 119 38 0 121 122 116 -.06 -.02 -.1
2 18 121 36 0 123 118 124 119 ?12 29 122 357 0 125 126 119 .06 .0635293874600276
 -.12 18 125 289 0 127 128 129 122 ?12 29 126 358 0 129 130 122 .06 .06352938746
00276 -.106 18 129 291 0 131 125 132 126 ?12 29 130 363 0 124 133 126 -.06 .0635
293874600276 -.12 18 124 286 0 134 121 128 130 ?12 29 133 364 0 128 135 130 -.06
 .0635293874600276 -.106 18 128 288 0 136 124 125 133 ?12 29 135 545 0 132 137 1
33 -.055 .03906621802940675 -.12 18 132 476 0 138 129 139 135 ?12 29 137 546 0 1
39 140 135 .055 .0390662180294067 -.12 18 139 478 0 141 132 142 137 ?12 29 140 5
48 0 142 143 137 -.055 -.01442555331021974 -.12 18 142 471 0 144 139 145 140 ?12
 29 143 549 0 145 146 140 -.055 .0603154494115949 -.102169777784405 18 145 473 0
 147 142 148 143 ?12 29 146 550 0 148 149 143 .055 .0603154494115949 -.102169777
784405 18 148 474 0 150 145 151 146 ?12 29 149 551 0 151 152 146 .055 .038213938
0484327 -.0758302222155949 18 151 475 0 153 148 154 149 ?12 29 152 765 0 154 155
 149 .055 .01552938746002765 -.094864820247748 18 154 705 0 156 151 157 152 ?12
 29 155 766 0 157 158 152 .055 -.00846678534724871 -.115 18 157 695 0 159 154 16
0 155 ?12 29 158 768 0 160 161 155 -.055 .01552938746002765 -.094864820247748 18
 160 697 0 162 157 163 158 ?12 29 161 769 0 163 164 158 .055 .01552938746002765
 -.006 18 163 699 0 165 160 166 161 ?12 29 164 771 0 166 167 161 .055 -.015 -.11
5 18 166 700 0 168 163 169 164 ?12 29 167 772 0 169 170 164 .055 -.015 -.006 18
 169 702 0 171 166 172 167 ?12 29 170 773 0 172 173 167 -.055 .01552938746002765
 -.006 18 172 698 0 174 169 175 170 ?12 29 173 775 0 175 176 170 -.055 -.015 -.1
15 18 175 696 0 177 172 178 173 ?12 29 176 776 0 178 179 173 -.055 -.015 -.006 1
8 178 701 0 180 175 181 176 ?12 29 179 958 0 181 182 176 .047 .01552938746002765
 -.094864820247748 18 181 890 0 183 178 184 179 ?12 29 182 959 0 184 185 179 .04
7 .0302139380484327 -.0825430192650132 18 184 892 0 186 181 187 182 ?12 29 185 9
60 0 187 188 182 -.047 .01552938746002765 -.094864820247748 18 187 886 0 189 184
 190 185 ?12 29 188 961 0 190 191 185 -.047 .0302139380484327 -.0825430192650131
 18 190 885 0 192 187 193 188 ?12 29 191 962 0 193 194 188 -.047 .01552938746002
765 -.025 18 193 887 0 195 190 196 191 ?12 29 194 970 0 196 197 191 -.047 .03021
39380484327 -.025 18 196 898 0 198 193 199 194 ?12 29 197 971 0 199 200 194 .047
 .0302139380484327 -.025 18 199 897 0 201 196 202 197 ?12 29 200 1106 0 202 203
 197 .06 -.02 -.0375 18 202 1065 0 204 199 205 200 ?12 29 203 1186 0 205 0 200 -
.06 -.02 -.0825 18 205 1164 0 206 202 0 203 ?12 17 206 0 207 96 208 205 209 210
 0 211 +15 255 207 1146 0 212 213 0 17 96 0 207 214 206 94 215 216 0 217 -17 208
 0 207 206 218 121 219 220 0 0 -17 209 0 221 222 211 121 206 210 0 208 -16 210 1
00 0 ?206 223 224 225 226 224 12 17 211 0 221 209 217 205 227 224 0 228 -15 221
 103 0 229 230 0 17 217 0 221 211 93 94 214 226 0 227 -17 227 0 231 228 228 94 2
11 224 0 232 +16 224 1140 0 ?227 210 226 225 210 226 12 17 228 0 231 227 227 205
 232 233 0 215 -15 231 1167 0 228 234 0 17 232 0 235 215 215 94 228 233 0 0 +16
 233 1157 0 ?232 216 39 236 216 216 12 17 215 0 235 232 232 205 96 216 0 0 +15 2
35 1172 0 215 237 0 16 216 1154 0 ?215 238 233 236 233 233 12 16 238 1160 0 ?239
 240 216 241 0 0 12 31 236 1184 0 216 241 242 0 +-.06 -.02 -.06 -1 0 0 0 0 1 .02
25 31 241 1185 0 238 0 236 0 +-.065 -.02 -.06 -1 0 0 0 0 1 .0225 31 242 1105 0 2
43 236 244 0 +.055 -.02 -.06 1 0 0 0 0 -1 .0225 16 243 1045 0 ?245 246 240 242 0
 0 12 31 244 1104 0 240 242 247 0 +.06 -.02 -.06 1 0 0 0 0 -1 .0225 16 240 1042
 0 ?248 243 238 244 0 0 12 30 255 247 1102 0 246 244 249 0 +.055 -.02 -.12 0 0 -
1 16 246 1048 0 ?250 251 243 247 0 0 12 30 249 1101 0 251 247 252 0 -.055 -.02 -
.0825 1 0 0 16 251 1054 0 ?99 253 246 249 0 0 12 30 252 1100 0 253 249 254 0 +.0
55 -.02 -.0375 1 0 0 16 253 1053 0 ?255 256 251 252 0 0 12 30 254 957 0 256 252
 257 0 +.047 .0302139380484327 -.025 -1815801840447015e-31 1 0 16 256 879 0 ?201
 258 253 254 0 0 12 30 257 956 0 258 254 259 0 +.047 .0302139380484327 -.025 -1
 -1107270303814982e-31 0 16 258 882 0 ?198 260 256 257 0 0 12 30 259 955 0 260 2
57 261 0 +-.047 .0302139380484327 -.025 1815801840447015e-31 -1 0 16 260 875 0 ?
262 263 258 259 0 0 12 30 261 947 0 263 259 264 0 +-.047 .0302139380484327 -.025
 0 0 -1 16 263 846 0 ?265 266 260 261 0 0 12 30 264 946 0 266 261 267 0 +.047 .0
302139380484327 -.025 0 0 -1 16 266 843 0 ?268 269 263 264 0 0 12 30 267 945 0 2
69 264 270 0 +-.047 -.0537113951258444 -.15296473537798 -1390984909679644e-31 .7
66044443118977 .642787609686541 16 269 866 0 ?192 271 266 267 0 0 12 30 270 944
 0 271 267 272 0 +.047 -.0537113951258444 -.15296473537798 1390984909679644e-31
 -.766044443118977 -.642787609686541 16 271 856 0 ?183 273 269 270 0 0 12 30 272
 764 0 273 270 274 0 +-.055 .01552938746002765 -.006 0 -1 -113642861537795e-30 1
6 273 672 0 ?275 276 271 272 0 0 12 30 274 763 0 276 272 277 0 +-.055 -.015 -.00
6 0 0 -1 16 276 676 0 ?278 279 273 274 0 0 12 30 277 762 0 279 274 280 0 +-.055
 .01552938746002765 -.115 0 1 0 16 279 652 0 ?111 281 276 277 0 0 12 30 280 761
 0 281 277 282 0 +-.055 .01552938746002765 -.006 0 0 1 16 281 655 0 ?174 283 279
 280 0 0 12 30 282 760 0 283 280 284 0 +.055 .01552938746002765 -.006 0 -1 -1136
42861537795e-30 16 283 665 0 ?285 286 281 282 0 0 12 30 284 759 0 286 282 287 0
 +.055 -.015 -.006 0 0 -1 16 286 668 0 ?168 288 283 284 0 0 12 30 287 758 0 288
 284 289 0 +.055 .01552938746002765 -.115 0 1 0 16 288 658 0 ?159 290 286 287 0
 0 12 30 289 757 0 290 287 291 0 +.055 .01552938746002765 -.006 0 0 1 16 290 662
 0 ?165 292 288 289 0 0 12 30 291 756 0 292 289 293 0 +.055 .01552938746002765 -
.006 -1 0 0 16 292 671 0 ?294 295 290 291 0 0 12 30 293 754 0 295 291 296 0 +.05
5 -.015 -.115 -1 0 0 16 295 651 0 ?177 297 292 293 0 0 12 30 296 753 0 297 293 2
98 0 +.055 -.015 -.006 -1 0 0 16 297 675 0 ?180 299 295 296 0 0 12 30 298 540 0
 299 296 300 0 +-.055 .0603154494115949 -.102169777784405 201806788371729e-30 -.
642787609686541 .766044443118977 16 299 459 0 ?301 302 297 298 0 0 12 30 300 539
 0 302 298 303 0 +-.055 .0382139380484327 -.0758302222155949 1 0 0 16 302 462 0
 ?304 305 299 300 0 0 12 30 303 538 0 305 300 306 0 +.055 .0603154494115949 -.10
2169777784405 0 .642787609686541 -.766044443118977 16 305 465 0 ?307 308 302 303
 0 0 12 30 306 537 0 308 303 309 0 +-.055 .0603154494115949 -.102169777784405 -1
 0 0 16 308 468 0 ?310 311 305 306 0 0 12 30 309 536 0 312 306 313 0 +-.055 -.03
160988376268225 -.17930429094679 0 .766044443118977 .642787609686541 16 312 438
 0 ?147 314 315 309 0 0 12 30 313 535 0 315 309 316 0 +.055 -.03160988376268225
 -.17930429094679 0 .766044443118977 .642787609686541 16 315 440 0 ?150 312 317
 313 0 0 12 30 316 534 0 317 313 318 0 +.055 -.0537113951258444 -.15296473537798
 0 .766044443118977 .642787609686541 16 317 442 0 ?319 315 320 316 320 320 12 30
 318 533 0 321 316 322 0 +-.055 -.0537113951258444 -.15296473537798 0 .766044443
118977 .642787609686541 16 321 436 0 ?323 320 311 318 311 311 12 30 322 532 0 31
4 318 324 0 +0 -.01442555331021976 -.12 1 0 0 16 314 441 0 ?325 326 312 322 0 0
 12 30 324 531 0 326 322 327 0 +.055 0 -.12 0 1 0 16 326 439 0 ?328 329 314 324
 0 0 12 30 327 530 0 329 324 330 0 +0 .0390662180294067 -.12 -1 0 0 16 329 437 0
 ?331 332 326 327 0 0 12 30 330 529 0 332 327 333 0 +-.055 -713453967137897e-32
 -.12 1297189031159812e-31 -1 0 16 332 435 0 ?334 335 329 330 0 0 12 30 333 352
 0 336 330 337 0 +-.06 -.0149142359992683 -.012514529926277 0 .642787609686541 -
.766044443118977 16 336 255 0 ?338 339 340 333 0 0 12 30 337 351 0 339 333 341 0
 +-.06 .0635293874600277 -629748113379067e-31 0 -991270557701033e-30 -1 16 339 2
51 0 ?218 342 336 337 0 0 12 30 341 346 0 335 337 343 0 +.06 -.0149142359992683
 -.012514529926277 0 .642787609686541 -.766044443118977 16 335 269 0 ?344 340 33
2 341 0 0 12 30 343 345 0 340 341 345 0 +.06 .0635293874600277 -629748113379067e
-31 0 -991270557701033e-30 -1 16 340 272 0 ?127 336 335 343 0 0 12 30 345 340 0
 346 343 347 0 +-.06 .0635293874600276 -.12 1 0 0 16 346 254 0 ?348 349 350 345
 0 0 12 30 347 339 0 350 345 351 0 +-.06 .0635293874600276 -.106 1 0 0 16 350 25
8 0 ?131 346 342 347 0 0 12 30 351 338 0 342 347 352 0 +-.06 .035 -.072 1 0 0 16
 342 1231 0 ?353 350 339 351 0 0 12 30 352 7 0 354 351 355 0 +.06 0 -.12 0 -1 0
 16 354 194 0 ?120 220 349 352 0 0 12 30 355 19 0 220 352 356 0 +-.06 0 -.12 0 1
 0 16 220 17 0 ?219 357 354 355 0 0 12 30 356 27 0 357 355 358 0 +23129646346357
45e-33 -.02 -.12 -1 -1156482317317872e-31 0 16 357 25 0 ?123 226 220 356 0 0 12
 30 358 91 0 349 356 359 0 +2312964634635745e-33 -.02 0 -1 -1156482317317872e-31
 0 16 349 1271 0 ?360 354 346 358 0 0 12 30 359 115 0 361 358 225 0 +.06 -.02 -.
12 0 0 1 16 361 99 0 ?105 362 223 359 223 223 12 30 225 116 0 210 359 363 0 +-.0
6 -.02 -.12 0 0 1 30 363 620 0 364 225 365 0 +-.055 .01552938746002765 -.0948648
20247748 1 0 0 16 364 618 0 ?366 367 362 363 362 362 12 30 365 626 0 367 363 368
 0 +-.055 -.00846678534724873 -.115 -1 0 0 16 367 624 0 ?369 370 364 365 0 0 12
 30 368 821 0 370 365 371 0 +.055 .01552938746002765 -.025 1 0 0 16 370 819 0 ?3
72 373 367 368 0 0 12 30 371 823 0 373 368 374 0 +-.047 .01552938746002765 -.006
 0 0 1 16 373 822 0 ?375 376 370 371 0 0 12 30 374 826 0 376 371 377 0 +.047 .01
552938746002765 -.006 0 0 -1 16 376 824 0 ?378 379 373 374 0 0 12 30 377 836 0 3
79 374 380 0 +-.055 .0302139380484327 -.0825430192650132 1 1107270303814982e-31
 929110103544712e-31 16 379 834 0 ?186 381 376 377 0 0 12 30 380 1217 0 381 377
 382 0 +-.06 .02 -.005 0 1 0 16 381 1215 0 ?90 383 379 380 0 0 12 31 382 1221 0
 383 380 384 0 --.06 -.0687828611492281 -.0560589294060892 1 0 0 0 0 -1 .1 16 38
3 1219 0 ?212 385 381 382 0 0 12 30 384 1242 0 385 382 386 0 +-.06 .021498735895
87385 -.002447053529695535 1 0 0 16 385 1240 0 ?75 387 383 384 0 0 12 31 386 124
4 0 387 384 388 0 +.055 -.0687828611492281 -.0560589294060892 -1 0 0 0 0 1 .105
 16 387 1243 0 ?81 389 385 386 0 0 12 31 388 1247 0 389 386 390 0 +-.055 -.06878
28611492281 -.0560589294060892 1 0 0 0 0 -1 .105 16 389 1245 0 ?78 391 387 388 0
 0 12 30 390 1257 0 391 388 392 0 +.06 -.02 -.005 0 -1 0 16 391 1255 0 ?72 393 3
89 390 0 0 12 31 392 1261 0 393 390 394 0 -.06 -.0687828611492281 -.056058929406
0892 -1 0 0 0 0 1 .1 16 393 1259 0 ?69 395 391 392 0 0 12 31 394 1278 0 395 392
 396 0 --.055 -.02 -.005 -115648231731787e-30 1 0 -1 -1156482317317872e-31 0 .00
5 16 395 1276 0 ?93 397 393 394 0 0 12 31 396 1284 0 397 394 398 0 -.055 -.02 -.
005 -115648231731787e-30 1 0 -1 -1156482317317872e-31 0 .005 16 397 1282 0 ?63 3
99 395 396 0 0 12 30 398 1291 0 399 396 400 0 --.055 -.02 0 0 1 0 16 399 1289 0
 ?55 57 397 398 0 0 12 30 400 1295 0 57 398 401 0 +-.06 .01719961222705945 0 -1
 0 0 16 57 1293 0 ?49 52 399 400 0 0 12 30 401 1298 0 52 400 402 0 -.055 .02 0 0
 -1 0 16 52 1296 0 ?46 44 57 401 0 0 12 38 12 CCCCCCCCCCCA17 intersection_data20
4 0 Z402 1413 0 44 401 45 0 +403 404 405 406 407 408 16 44 1303 0 ?84 29 52 402
 0 0 12 38 45 1414 0 29 402 409 0 +403 25 410 411 412 413 50 255 403 331 0 414 4
15 416 417 +-.06 -.0149142359992683 -.012514529926277 0 -.766044443118977 -.6427
87609686541 0 .642787609686541 -.766044443118977 54 404 1483 0 418 419 420 421 +
-.055 -.0687828611492281 -.0560589294060892 1 0 0 .1 .005 0 0 -1 40 255 6 405 0
 1 6 .0003890455334155355 .330330482043061 ??-.06 .03063839217844375 -.066802038
2091734 -.0596577238823448 .0322453612026601 -.0687171493169708 -.05868184419397
83 .03360865362650185 -.0703418579608406 -.0574742059194664 .03443842332307705 -
.0713307389777599 -.056208668839828 .03487311835408795 -.07184878834265 -.055 .0
35 -.072 41 3 CI8 term_use0 0 1 cCZ1 406 L?-.06 .03063839217844375 -.06680203820
91734 41 1 407 L?-.055 .035 -.072 204 2 17 INTERSECTION_DATA17 Intersection data
7 uv_type0 0 1 u6 values0 1 1 fT24 408 4 .0708673090321795 -1387778780781446e-32
 1.463157506504656 -1.5707963267949 .0733673090321795 .0003422761176552005 1.446
151965018534 -1.198638236774016 .0754882155389284 .001318155806021716 1.43219739
6047132 -.827687632416882 .0767791080266971 .00252579408053358 1.42390977884009
 -.517652061320445 .0774553734438586 .003791331160171975 1.41962896511153 -.2441
522130604255 .0776527662435952 .005 1.418387252067632 0 14 255 418 1439 422 ?0 4
23 424 24 404 +0 0 0 423 42 50 419 114 0 425 426 404 0 +.06 0 -.12 -1 0 0 0 0 1
 53 255 420 1482 0 423 404 427 0 +-.055 .0171996122270595 -.005 .005 -1 69388939
0390723e-30 -1561251128379125e-30 -1561251128379125e-30 0 1 141 255 421 402 421
 421 404 14 423 1437 428 ?418 429 430 24 420 +0 0 418 429 42 51 255 427 1481 0 4
29 420 431 0 +-.055 0 -.005 0 -1 0 .005 0 0 -1 14 429 1435 432 ?423 433 434 24 4
27 +0 0 423 433 42 51 431 1480 0 433 427 435 0 +-.06 .01719961222705945 -.005 1
 0 0 .005 0 0 -1 14 433 1433 436 ?429 437 438 24 431 +0 0 429 437 42 53 435 1479
 0 437 431 37 0 +.055 .0171996122270595 -.005 .005 1 1387778780781446e-30 -15612
51128379125e-30 -1561251128379125e-30 0 -1 14 437 1431 439 ?433 440 441 24 435 +
0 0 433 440 42 51 37 1478 0 440 435 25 0 +.055 0 -.005 0 1 0 .005 0 0 1 14 440 1
429 442 ?437 36 443 24 37 +0 0 437 36 42 81 1 442 1913 444 440 445 0 439 446 447
 14 36 1427 446 ?440 448 449 24 25 +0 0 440 448 42 15 443 1430 0 450 440 0 13 42
 45 0 0 0 0 0 0 28 34 14 34 839 451 ?452 0 453 24 454 -455 455 452 0 42 81 1 451
 1917 444 34 456 0 446 457 458 14 452 827 457 ?455 34 459 24 460 +0 0 455 34 42
 15 453 838 0 461 34 0 50 454 524 0 455 462 463 0 +-.055 -.0537113951258444 -.15
296473537798 0 -.642787609686541 .766044443118977 0 -.766044443118977 -.64278760
9686541 14 455 627 464 ?425 452 465 24 454 -34 34 425 452 42 81 1 464 1921 444 4
55 466 0 457 467 468 14 425 233 467 ?213 455 469 24 419 -0 0 213 455 42 15 465 6
25 0 470 455 0 17 470 0 465 114 323 157 369 367 0 319 -17 114 0 465 144 470 112
 319 317 0 471 -17 323 0 465 470 144 109 472 321 0 0 +17 369 0 473 474 159 109 4
70 367 0 323 +17 319 0 475 476 471 157 114 317 0 0 +15 475 780 0 476 477 0 17 47
6 0 475 171 319 166 159 288 0 0 -17 471 0 475 319 478 112 328 326 0 325 -17 478
 0 475 471 307 139 150 315 0 328 -17 328 0 479 331 325 139 471 326 0 0 +17 325 0
 479 328 334 112 144 314 0 0 +15 479 417 0 331 480 481 17 334 0 479 325 331 142
 138 332 0 0 +17 144 0 465 323 114 142 325 314 0 472 -17 472 0 482 138 111 142 3
23 321 0 334 -15 482 486 0 111 483 0 17 138 0 482 147 472 132 334 332 0 484 -17
 111 0 482 472 278 109 474 279 0 369 +17 278 0 482 111 275 175 485 276 0 0 +17 4
74 0 473 486 369 175 111 279 0 278 -15 473 710 0 369 487 0 17 486 0 473 159 474
 166 177 295 0 476 -17 159 0 473 369 486 157 476 288 0 470 +17 177 0 488 485 168
 175 486 295 0 474 +15 488 728 0 489 490 0 17 485 0 488 489 177 178 278 276 0 27
5 -17 168 0 488 177 489 166 171 286 0 486 +17 489 0 488 168 485 169 180 297 0 0
 -17 171 0 475 491 476 169 168 286 0 285 -17 491 0 475 492 171 163 285 283 0 0 -
17 285 0 493 180 494 169 491 283 0 489 +15 493 724 0 494 495 0 17 180 0 493 496
 285 178 489 297 0 485 +17 494 0 493 285 496 163 294 292 0 491 -17 496 0 493 494
 180 172 275 273 0 0 -17 294 0 459 162 165 172 494 292 0 496 +15 459 714 0 372 4
52 0 17 162 0 459 366 294 160 174 281 0 497 -17 165 0 459 294 156 163 492 290 0
 494 +17 156 0 459 165 378 154 498 362 0 492 +17 492 0 475 153 491 154 165 290 0
 499 -17 153 0 475 307 492 151 499 320 0 304 +17 499 0 453 498 304 154 153 320 0
 0 -17 498 0 453 461 499 181 156 362 0 0 -17 304 0 453 499 117 151 500 302 0 501
 +16 320 616 0 ?153 317 321 316 317 317 12 17 117 0 453 304 497 115 502 311 0 30
1 +17 500 0 503 504 501 115 304 302 0 0 -17 501 0 503 500 505 151 307 305 0 0 -1
5 503 396 0 500 414 506 17 505 0 503 501 504 148 310 308 0 0 -17 307 0 475 478 1
53 148 501 305 0 505 +17 504 0 503 505 500 145 301 299 0 0 -17 310 0 507 484 150
 145 505 308 0 504 +15 507 490 0 150 508 0 17 484 0 507 141 310 132 147 312 0 33
1 -17 150 0 507 310 141 148 478 315 0 307 +17 141 0 507 150 484 139 331 329 0 47
8 -17 331 0 479 334 328 132 141 329 0 0 +17 147 0 482 301 138 145 484 312 0 310
 +17 301 0 482 502 147 115 504 299 0 500 +17 502 0 482 174 301 160 117 311 0 0 -
17 174 0 482 275 502 172 162 281 0 294 +16 311 610 0 ?117 321 308 318 321 321 12
 17 275 0 482 278 174 178 496 273 0 0 +14 508 487 509 ?477 483 507 24 510 -0 0 4
77 483 42 81 1 509 1925 444 508 511 0 467 512 513 14 477 491 512 ?487 508 475 24
 462 -0 0 487 508 42 14 483 483 514 ?508 515 482 24 463 -0 0 508 515 42 50 510 5
26 0 508 516 462 0 +-.055 -.03160988376268225 -.17930429094679 0 .64278760968654
1 -.766044443118977 0 .766044443118977 .642787609686541 50 516 745 0 495 517 510
 0 +.055 .01552938746002765 -.006 0 113642861537795e-30 -1 0 1 113642861537795e-
30 50 462 525 0 477 510 454 0 +.055 -.03160988376268225 -.17930429094679 1 0 0 0
 0 -1 14 495 721 518 ?490 487 493 24 516 +0 0 490 487 42 50 517 746 0 490 519 51
6 0 +.055 -.015 -.006 0 1 0 0 0 1 14 490 725 520 ?521 495 488 24 517 +0 0 521 49
5 42 50 519 747 0 487 460 517 0 +.055 .01552938746002765 -.115 0 0 1 1 0 0 14 48
7 707 522 ?495 477 473 24 519 +0 0 495 477 42 50 460 748 0 452 523 519 0 +.055 .
01552938746002765 -.006 0 -1 0 0 0 -1 50 523 938 0 524 525 460 0 +.047 .03021393
80484327 -.025 -1 -1815801840447015e-31 0 1815801840447015e-31 -1 0 14 524 903 5
26 ?527 521 528 24 523 +0 0 527 521 42 50 525 939 0 521 529 523 0 +.047 .0302139
380484327 -.025 1107270303814982e-31 -1 0 1 1107270303814982e-31 0 14 521 899 53
0 ?524 490 531 24 525 +0 0 524 490 42 50 529 940 0 527 532 525 0 +-.047 .0302139
380484327 -.025 1 1815801840447015e-31 0 -1815801840447015e-31 1 0 14 527 907 53
3 ?534 524 535 24 529 +0 0 534 524 42 50 532 943 0 534 536 529 0 +0 0 -.025 0 0
 -1 -1 0 0 14 534 930 537 ?538 527 539 24 532 +0 0 538 527 42 51 536 1096 0 538
 540 532 0 +.055 -.02 -.06 1 0 0 .0225 0 0 -1 14 538 1074 541 ?542 534 543 24 53
6 +0 0 542 534 42 50 540 1098 0 542 544 536 0 +.055 -.02 -.06 1 0 0 0 0 -1 14 54
2 1078 545 ?234 538 546 24 540 -0 0 234 538 42 51 544 1181 0 237 547 540 0 --.06
5 -.02 -.06 1 0 0 .0225 0 0 -1 14 237 1168 548 ?448 234 549 24 544 -0 0 448 234
 42 50 547 1182 0 234 550 544 0 +-.06 -.02 -.06 -1 0 0 0 0 1 14 234 1165 551 ?23
7 542 231 24 547 -0 0 237 542 42 50 550 1183 0 448 0 547 0 +-.065 -.02 -.06 -1 0
 0 0 0 1 14 448 1173 552 ?36 237 553 24 550 +0 0 36 237 42 81 1 552 1953 444 448
 554 0 551 555 556 15 553 1175 0 239 448 0 17 239 0 553 239 239 0 557 238 0 0 +1
7 557 0 549 557 557 0 239 238 0 0 -15 549 1171 0 557 237 235 80 7 CCCCCDI12 lega
l_owners0 16 1 lCZ1 444 558 559 9000 1 1 1 1 1 1 1 1 0 FFFFTFTFFFFFFFFF1 81 1 55
4 1785 560 448 0 552 561 562 563 81 1 551 1951 444 234 564 0 548 552 565 81 1 55
5 1955 444 515 566 0 552 567 568 82 255 1 556 2103836800 14 515 315 555 ?483 414
 569 24 416 -0 0 483 414 42 81 1 566 1770 560 515 0 555 570 571 572 81 1 567 195
7 444 414 570 0 555 573 574 82 1 568 1951072387 14 414 311 567 ?515 575 503 24 4
03 -0 0 515 575 42 81 1 570 1769 560 414 0 567 576 566 577 81 1 573 1959 444 575
 576 0 567 578 579 82 1 574 1950941315 14 575 307 573 ?414 580 581 24 415 -0 0 4
14 580 42 81 1 576 1768 560 575 0 573 582 570 583 81 1 578 1961 444 213 584 0 57
3 585 586 82 1 579 1950810218 14 213 217 578 ?230 425 207 24 426 -0 0 230 425 42
 81 1 584 1764 560 213 0 578 587 588 589 81 1 585 1963 444 580 582 0 578 590 591
 82 1 586 1958150275 14 580 59 585 ?575 480 48 24 592 +0 0 575 480 42 81 1 582 1
767 560 580 0 585 593 576 594 81 1 590 1965 444 480 593 0 585 595 596 82 1 591 1
048248451 14 480 1 590 ?580 230 479 24 597 -0 0 580 230 42 81 1 593 1766 560 480
 0 590 588 582 598 81 1 595 1967 444 230 588 0 590 0 599 82 1 596 1041236077 14
 230 104 595 ?480 213 221 24 600 -0 0 480 213 42 81 1 588 1765 560 230 0 595 584
 593 601 82 1 599 1049231491 80 1 560 0 602 8001 0 0 0 0 3 5 0 0 0 FFFFTFTFFFFFF
FFF2 83 255 3 601 .792156862745098 .819607843137255 .933333333333333 79 255 15 6
02 SDL/TYSA_COLOUR50 600 111 0 230 592 426 0 +2312964634635745e-33 -.02 -.12 -11
5648231731787e-30 1 0 -1 -1156482317317872e-31 0 50 592 90 0 580 597 600 0 +0 0
 0 0 0 1 1 0 0 50 426 112 0 213 600 419 0 +-.06 0 -.12 1 0 0 0 0 -1 50 597 3 0 4
80 416 592 0 +0 0 -.12 0 0 1 1 0 0 51 416 330 0 515 403 597 0 --.06 -.0687828611
492281 -.0560589294060892 1 0 0 .105 0 0 -1 83 3 598 .792156862745098 .819607843
137255 .933333333333333 83 3 594 .792156862745098 .819607843137255 .933333333333
333 15 48 187 0 50 580 0 17 50 0 48 46 55 59 360 349 0 51 -17 55 0 48 50 49 54 5
8 399 0 360 +17 360 0 221 93 63 54 50 349 0 603 +17 51 0 443 450 53 59 46 52 0 0
 -17 450 0 443 604 51 70 63 397 0 0 -17 53 0 443 51 604 30 605 606 0 607 -17 604
 0 443 53 450 67 72 391 0 608 -17 605 0 441 609 607 67 53 606 0 0 +16 606 1450 0
 ?605 39 610 40 0 0 12 17 607 0 441 605 609 30 611 610 0 56 -15 441 1432 0 605 4
37 0 17 609 0 441 607 605 73 608 39 0 611 +17 611 0 438 612 56 73 607 610 0 0 +1
6 610 1452 0 ?611 606 613 614 0 0 12 17 56 0 438 611 615 30 49 57 0 0 -15 438 14
34 0 611 433 0 17 615 0 438 56 612 47 616 613 0 617 -17 612 0 438 615 611 76 75
 385 0 616 -17 616 0 430 618 617 76 615 613 0 619 +16 613 1457 0 ?616 610 620 62
1 0 0 12 17 617 0 430 616 618 47 622 620 0 0 +15 430 1438 0 617 423 0 17 618 0 4
30 617 616 88 619 623 0 624 -17 622 0 434 625 58 88 617 620 0 618 -16 620 1458 0
 ?617 613 623 626 0 0 12 16 623 1460 0 ?619 620 0 409 0 0 12 31 626 1488 0 620 4
09 621 0 +-.055 .0171996122270595 -.005 0 1 346944695195361e-29 0 -3469446951953
61e-29 1 .005 31 409 1489 0 623 45 626 0 --.055 .0171996122270595 -.005 -4828966
94664785e-29 -.510589294060892 .859824733762876 0 -.859824733762876 -.5105892940
60892 .005 31 621 1487 0 613 626 614 0 +-.055 .01719961222705945 -.005 -1 0 0 0
 0 1 .005 31 614 1486 0 610 621 40 0 -.055 .0171996122270595 -.005 1 -8241039832
51196e-30 1387778780781448e-30 1387778780781448e-30 0 -1 .005 31 40 1485 0 606 6
14 26 0 +.055 .01719961222705945 -.005 -3469446951953615e-30 1 0 -1 -34694469519
53615e-30 0 .005 17 619 0 424 627 624 76 618 623 0 0 +15 424 1440 0 619 418 0 17
 627 0 424 628 619 82 78 389 0 0 -17 624 0 424 619 628 88 212 383 0 0 -17 628 0
 424 624 627 85 84 44 0 212 -17 212 0 207 338 90 85 624 383 0 0 +17 338 0 207 21
8 212 128 87 336 0 0 +17 90 0 207 212 214 88 625 381 0 622 +17 214 0 207 90 96 9
1 217 226 0 625 +17 625 0 434 603 622 91 90 381 0 0 -15 434 1436 0 603 429 0 17
 603 0 434 58 625 54 93 395 0 0 -17 58 0 434 622 603 47 55 399 0 615 -17 93 0 22
1 217 360 91 603 395 0 214 +16 226 1143 0 ?214 224 357 225 224 210 12 17 218 0 2
07 208 338 124 629 339 0 219 +17 87 0 506 84 136 85 338 336 0 628 -15 506 314 0
 344 414 0 17 84 0 506 353 87 82 628 44 0 630 +17 136 0 506 87 344 128 131 350 0
 629 -17 344 0 506 136 43 129 66 335 0 631 +17 131 0 581 127 629 129 136 350 0 3
44 +17 629 0 581 131 134 128 218 339 0 338 -15 581 310 0 127 575 0 17 134 0 581
 629 127 124 348 346 0 218 -17 127 0 581 134 131 125 631 340 0 348 +17 348 0 481
 120 219 125 134 346 0 632 +15 481 4 0 219 480 0 17 120 0 481 123 348 118 632 35
4 0 222 +17 219 0 481 348 123 124 208 220 0 0 +17 632 0 469 631 633 125 120 354
 0 0 -15 469 109 0 66 425 0 17 631 0 469 66 632 129 127 340 0 0 -17 633 0 469 63
2 248 118 105 361 0 0 -17 248 0 469 633 204 103 634 240 0 0 +17 105 0 221 99 222
 103 633 361 0 635 +17 99 0 221 102 105 97 635 251 0 250 +17 222 0 221 105 209 1
18 123 357 0 633 -17 635 0 543 634 245 103 99 251 0 248 -15 543 1077 0 636 538 0
 17 634 0 543 636 635 202 248 240 0 0 -17 245 0 543 635 636 97 637 243 0 0 +17 6
36 0 543 245 634 100 255 253 0 637 -17 637 0 546 250 250 100 245 243 0 0 -15 546
 1080 0 637 542 0 17 250 0 546 637 637 97 102 246 0 245 +17 102 0 221 255 99 100
 250 246 0 636 -17 255 0 221 229 102 202 636 253 0 634 +17 229 0 221 63 255 70 2
04 223 0 450 +17 63 0 221 360 229 59 450 397 0 50 +17 204 0 469 248 72 202 229 2
23 0 255 -16 223 1020 0 ?229 361 210 359 361 361 12 17 72 0 469 204 69 70 604 39
1 0 229 +17 69 0 469 72 66 67 638 393 0 604 +17 66 0 469 69 631 64 344 335 0 43
 -17 638 0 449 639 608 64 69 393 0 0 -15 449 1428 0 639 36 0 17 639 0 449 640 63
8 79 43 29 0 0 -17 608 0 449 638 640 67 609 39 0 605 -17 640 0 449 608 639 73 81
 387 0 609 -16 39 1449 0 ?609 233 606 26 0 0 12 17 81 0 569 630 75 79 640 387 0
 353 +15 569 1237 0 630 515 0 17 630 0 569 78 81 82 353 342 0 627 -17 75 0 569 8
1 78 73 612 385 0 640 +17 353 0 506 43 84 79 630 342 0 639 +17 43 0 506 344 353
 64 639 29 0 638 +17 78 0 569 75 630 76 627 389 0 612 +17 123 0 481 219 120 121
 222 357 0 209 +81 1 587 1763 560 425 0 467 466 584 641 83 3 589 .79215686274509
8 .819607843137255 .933333333333333 81 1 467 1923 444 425 587 0 464 509 642 81 1
 466 1762 560 455 0 464 643 587 644 83 3 641 .792156862745098 .819607843137255 .
933333333333333 81 1 643 1761 560 452 0 457 456 466 645 83 3 644 .79215686274509
8 .819607843137255 .933333333333333 81 1 457 1919 444 452 643 0 451 464 646 81 1
 456 1760 560 34 0 451 0 643 647 83 3 645 .792156862745098 .819607843137255 .933
333333333333 83 3 647 .792156862745098 .819607843137255 .933333333333333 82 1 64
6 1229258874 82 1 642 1959592067 83 3 583 .792156862745098 .819607843137255 .933
333333333333 50 415 332 0 575 463 403 0 +-.06 .0635293874600277 -629748113379067
e-31 0 -1 991270557701033e-30 0 -991270557701033e-30 -1 50 463 523 0 483 454 415
 0 +-.055 -.03160988376268225 -.17930429094679 -1 -1297189031159812e-31 15459296
881585e-29 15459296881585e-29 0 1 83 3 577 .792156862745098 .819607843137255 .93
3333333333333 81 1 571 1771 560 483 0 514 566 511 648 83 3 572 .792156862745098
 .819607843137255 .933333333333333 81 1 514 1929 444 483 571 0 512 518 649 81 1
 511 1772 560 508 0 509 571 650 651 83 3 648 .792156862745098 .819607843137255 .
933333333333333 81 1 650 1773 560 477 0 512 511 652 653 83 3 651 .79215686274509
8 .819607843137255 .933333333333333 81 1 512 1927 444 477 650 0 509 514 654 81 1
 652 1774 560 487 0 522 650 655 656 83 3 653 .792156862745098 .819607843137255 .
933333333333333 81 1 522 1935 444 487 652 0 520 526 657 81 1 655 1775 560 495 0
 518 652 658 659 83 3 656 .792156862745098 .819607843137255 .933333333333333 81
 1 518 1931 444 495 655 0 514 520 660 81 1 658 1776 560 490 0 520 655 661 662 83
 3 659 .792156862745098 .819607843137255 .933333333333333 81 1 520 1933 444 490
 658 0 518 522 663 81 1 661 1777 560 521 0 530 658 664 665 83 3 662 .79215686274
5098 .819607843137255 .933333333333333 81 1 530 1939 444 521 661 0 526 533 666 8
1 1 664 1778 560 524 0 526 661 667 668 83 3 665 .792156862745098 .81960784313725
5 .933333333333333 81 1 526 1937 444 524 664 0 522 530 669 81 1 667 1779 560 527
 0 533 664 670 671 83 3 668 .792156862745098 .819607843137255 .933333333333333 8
1 1 533 1941 444 527 667 0 530 537 672 81 1 670 1780 560 534 0 537 667 673 674 8
3 3 671 .792156862745098 .819607843137255 .933333333333333 81 1 537 1943 444 534
 670 0 533 541 675 81 1 673 1781 560 538 0 541 670 676 677 83 3 674 .79215686274
5098 .819607843137255 .933333333333333 81 1 541 1945 444 538 673 0 537 545 678 8
1 1 676 1782 560 542 0 545 673 564 679 83 3 677 .792156862745098 .81960784313725
5 .933333333333333 81 1 545 1947 444 542 676 0 541 548 680 81 1 564 1783 560 234
 0 551 676 561 681 83 3 679 .792156862745098 .819607843137255 .933333333333333 8
1 1 561 1784 560 237 0 548 564 554 682 83 3 681 .792156862745098 .81960784313725
5 .933333333333333 81 1 548 1949 444 237 561 0 545 551 683 83 3 682 .79215686274
5098 .819607843137255 .933333333333333 82 1 683 2105802880 82 1 680 -183304067 8
2 1 678 -181403523 82 1 675 1209860218 82 1 672 1231749242 82 1 669 1232928890 8
2 1 666 1234567290 82 1 663 1389297789 82 1 660 1389559920 82 1 657 1413939312 8
2 1 654 -1831993219 82 1 649 -1830616976 82 1 565 2112028800 81 1 562 1786 560 3
6 0 446 554 445 684 83 3 563 .792156862745098 .819607843137255 .933333333333333
 81 1 446 1915 444 36 562 0 442 451 685 81 1 445 1787 560 440 0 442 562 686 687
 83 3 684 .792156862745098 .819607843137255 .933333333333333 81 1 686 1788 560 4
37 0 439 445 688 689 83 3 687 .792156862745098 .819607843137255 .933333333333333
 81 1 439 1911 444 437 686 0 436 442 690 81 1 688 1789 560 433 0 436 686 691 692
 83 3 689 .792156862745098 .819607843137255 .933333333333333 81 1 436 1909 444 4
33 688 0 432 439 693 81 1 691 1790 560 429 0 432 688 694 695 83 3 692 .792156862
745098 .819607843137255 .933333333333333 81 1 432 1907 444 429 691 0 428 436 696
 81 1 694 1791 560 423 0 428 691 697 698 83 3 695 .792156862745098 .819607843137
255 .933333333333333 81 1 428 1905 444 423 694 0 422 432 699 81 1 697 1792 560 4
18 0 422 694 0 700 83 3 698 .792156862745098 .819607843137255 .933333333333333 8
1 1 422 1903 444 418 697 0 0 428 701 83 3 700 .792156862745098 .819607843137255
 .933333333333333 82 1 701 1077805187 82 1 699 1079312515 82 1 696 1080164483 82
 1 693 1081278595 82 1 690 1082392707 82 1 685 1084293251 79 14 559 SWEntUnchang
ed15 539 932 0 702 534 0 17 702 0 539 703 195 196 262 260 0 0 -17 703 0 539 108
 702 199 198 258 0 704 -17 195 0 539 702 108 193 372 370 0 262 -17 262 0 535 189
 705 193 702 260 0 375 +15 535 910 0 192 527 0 17 189 0 535 192 262 187 375 373
 0 706 -17 705 0 535 262 192 196 265 263 0 702 -17 375 0 459 372 366 193 189 373
 0 0 +17 372 0 459 378 375 106 195 370 0 0 +17 366 0 459 375 162 187 497 364 0 0
 +17 497 0 453 117 706 160 366 364 0 502 -17 706 0 453 497 707 187 192 269 0 366
 -17 707 0 453 706 461 190 186 379 0 0 -17 192 0 535 705 189 190 706 269 0 265 +
17 265 0 531 186 198 190 705 263 0 707 +15 531 902 0 186 521 0 17 186 0 531 704
 265 184 707 379 0 268 +17 198 0 531 265 704 196 703 258 0 705 +17 704 0 531 198
 186 199 268 266 0 0 -17 268 0 528 183 201 184 704 266 0 461 +15 528 906 0 183 5
24 0 17 183 0 528 708 268 181 461 271 0 378 +17 201 0 528 268 708 199 108 256 0
 703 +17 461 0 453 707 498 184 183 271 0 0 -17 708 0 528 201 183 106 378 376 0 3
72 -17 108 0 539 195 703 106 201 256 0 708 -17 378 0 459 156 372 181 708 376 0 4
98 +82 1 513 -1831141267 16 362 813 0 ?156 364 361 363 364 364 12 82 1 468 14102
69296 82 1 458 1234108538 82 1 447 1083179139 141 417 402 709 709 403 141 709 45
 417 417 403 40 6 410 0 1 6 .0004171334610054425 .358632242987614 ??.055 .035 -.
072 .0563542088595161 .0348400729613171 -.0718094063770967 .0575454743619493 .03
440287021750465 -.0712883684364662 .0587725420779897 .03352078760085415 -.070237
143309108 .059729795130478 .0320727323094836 -.0685114182133421 .06 .03063839217
844375 -.0668020382091734 41 1 411 L?.055 .035 -.072 41 1 412 L?.06 .03063839217
844375 -.0668020382091734 204 24 413 4 .0776527662435953 .115 1.72320540152216 0
 .077403963938957 .116354208859516 1.721639716903885 -.2742673796948775 .0767237
972132393 .1175454743619492 1.717330913937115 -.534132857548192 .075351520269256
7 .1187725420779896 1.7085086383144 -.854904761731489 .0730987461498602 .1197297
95130478 1.69364309940617 -1.240539304799384 .0708673090321795 .12 1.67843514708
514 -1.570796326794895 19 35 120 0 12 0 28 24 0 S0 141 38 45 38 38 25 74 4 CI16
 index_map_offset0 0 1 dCCZ20 33 5 0 0 595 710 32 697 21 0 0 0 0 0 0 0 0 0 0 0 0
 0 0 0 81 2 710 1198 711 12 0 32 0 0 712 0 81 2 32 1574 713 12 710 21 0 0 714 0
 80 2 713 715 716 8004 0 0 0 0 3 5 0 0 0 FFTFFFFFFFFFFFFF2 3 83 1 714 1 79 16 71
6 SDL/TYSA_DENSITY80 2 711 717 718 9000 0 0 0 0 3 5 0 0 0 FFTFTTTFFTFFFFFF3 3 84
 255 7 712 Radyus179 21 718 SWIMPLICITBODYNAME_ID80 1 31 719 720 8017 0 0 0 0 0
 0 0 0 0 TTTTTTTTTTTTTFTF3 79 13 720 SDL/TYSA_NAME81 1 10 309 31 7 721 0 0 0 0 7
0 11 0 4 T7 0 0 5 20 1 722 722 13 13 99 0 7 0 723 0 0 724 0 50 14 94 0 723 725 0
 0 +.09 -.06 .01 0 0 1 1 0 0 30 15 98 0 18 726 0 0 +.09 .04 .01 -1 0 0 29 16 32
 0 19 727 0 .09 -.06 .01 19 17 33 0 7 724 0 728 0 V0 16 18 82 0 ?729 0 730 15 0
 0 7 18 19 30 0 731 0 732 16 ?7 17 731 0 733 734 735 19 736 737 0 738 +18 732 27
 0 735 19 739 727 ?7 17 735 0 733 731 740 732 741 742 0 743 +18 739 24 0 740 732
 744 745 ?7 29 727 29 0 732 745 16 .09 -.06 .06 29 745 26 0 739 746 727 .09 .04
 .06 29 746 23 0 744 747 745 .09 .04 .01 18 744 21 0 748 739 749 746 ?7 29 747 1
95 0 749 750 746 -.09 -.06 .01 18 749 141 0 751 744 752 747 ?7 29 750 196 0 752
 753 747 -.09 -.06 .06 18 752 143 0 754 749 755 750 ?7 29 753 197 0 755 756 750
 -.09 .04 .06 18 755 145 0 757 752 758 753 ?7 29 756 198 0 758 0 753 -.09 .04 .0
1 18 758 147 0 729 755 0 756 ?7 17 729 0 759 760 748 758 761 18 0 762 +15 759 87
 0 729 763 0 17 760 0 759 764 729 755 762 765 0 0 +17 748 0 759 729 764 744 740
 766 0 734 -17 761 0 767 768 769 744 729 18 0 0 -17 762 0 770 771 772 758 760 76
5 0 769 -15 770 167 0 771 773 0 17 771 0 770 774 762 749 769 775 0 776 -17 772 0
 770 762 774 755 777 778 0 760 -16 765 125 0 ?760 778 775 779 0 0 7 17 769 0 767
 761 751 758 771 775 0 0 +15 767 89 0 751 723 0 17 751 0 767 769 768 749 738 780
 0 771 +16 775 113 0 ?769 765 0 781 0 0 7 30 781 190 0 775 0 779 0 +-.09 -.06 .0
1 0 1 0 30 779 189 0 765 781 782 0 +-.09 .04 .01 0 -1387778780781446e-31 1 30 78
2 188 0 778 779 783 0 +-.09 -.06 .06 0 -1 0 16 778 121 0 ?777 784 765 782 0 0 7
 30 783 187 0 784 782 785 0 +-.09 -.06 .01 0 1387778780781446e-31 -1 16 784 117
 0 ?776 786 778 783 0 0 7 30 785 7 0 786 783 787 0 +.09 -.06 .01 0 1 0 16 786 5
 0 ?734 766 784 785 0 0 7 30 787 11 0 766 785 788 0 +.09 .04 .01 0 -138777878078
1446e-31 1 16 766 9 0 ?740 742 786 787 0 0 7 30 788 15 0 742 787 789 0 +.09 -.06
 .06 0 -1 0 16 742 13 0 ?735 737 766 788 0 0 7 30 789 19 0 737 788 790 0 +.09 -.
06 .01 0 1387778780781446e-31 -1 16 737 17 0 ?731 780 742 789 0 0 7 30 790 95 0
 780 789 791 0 +.09 -.06 .01 -1 0 0 16 780 79 0 ?751 792 737 790 0 0 7 30 791 96
 0 792 790 726 0 +.09 -.06 .06 -1 0 0 16 792 80 0 ?754 730 780 791 0 0 7 30 726
 97 0 730 791 15 0 +.09 .04 .06 -1 0 0 16 730 81 0 ?757 18 792 726 0 0 7 17 757
 0 793 777 741 755 764 730 0 772 +15 793 85 0 757 794 0 17 777 0 793 743 757 752
 772 778 0 774 +17 741 0 793 757 743 739 735 742 0 0 -17 764 0 759 748 760 739 7
57 730 0 741 -17 743 0 793 741 777 732 754 792 0 736 -17 754 0 795 776 736 752 7
43 792 0 777 +17 736 0 795 754 738 732 731 737 0 0 -15 795 83 0 754 796 0 17 738
 0 795 736 776 19 751 780 0 768 -17 776 0 795 738 754 749 774 784 0 0 +17 768 0
 767 751 761 19 734 786 0 0 -17 734 0 733 740 731 744 768 786 0 761 +15 733 4 0
 734 797 0 17 740 0 733 735 734 739 748 766 0 764 +14 797 1 798 ?773 796 733 13
 799 +0 0 773 796 728 81 1 798 298 444 797 800 0 0 801 802 14 773 165 801 ?0 797
 770 13 803 -0 0 0 797 728 14 796 84 804 ?797 794 795 13 805 -0 0 797 794 728 50
 799 3 0 797 803 805 0 +.09 0 0 1 0 0 0 0 -1 13 728 34 0 0 0 0 0 0 17 723 14 723
 90 806 ?763 0 767 13 14 -0 0 763 0 728 81 1 806 304 444 723 807 0 804 808 809 1
4 763 88 808 ?794 723 759 13 725 -0 0 794 723 728 81 1 808 306 444 763 810 0 806
 811 812 14 794 86 811 ?796 763 793 13 813 -0 0 796 763 728 50 725 93 0 763 813
 14 0 +.09 .04 .01 0 -1 -1387778780781446e-31 0 1387778780781446e-31 -1 50 813 9
2 0 794 805 725 0 +.09 -.06 .06 0 0 -1 -1 0 0 50 805 91 0 796 799 813 0 +.09 -.0
6 .01 0 1 1387778780781446e-31 0 -1387778780781446e-31 1 81 1 811 308 444 794 81
4 0 808 0 815 81 1 814 273 560 794 0 811 810 816 817 82 1 815 685703302 81 1 810
 272 560 763 0 808 807 814 818 81 1 816 274 560 796 0 804 814 800 819 83 3 817 .
792156862745098 .819607843137255 .933333333333333 81 1 804 302 444 796 816 0 801
 806 820 81 1 800 275 560 797 0 798 816 821 822 83 3 819 .792156862745098 .81960
7843137255 .933333333333333 81 1 821 276 560 773 0 801 800 0 823 83 3 822 .79215
6862745098 .819607843137255 .933333333333333 81 1 801 300 444 773 821 0 798 804
 824 83 3 823 .792156862745098 .819607843137255 .933333333333333 82 1 824 693371
014 82 1 820 685441158 81 1 807 271 560 723 0 806 0 810 825 83 3 818 .7921568627
45098 .819607843137255 .933333333333333 83 3 825 .792156862745098 .8196078431372
55 .933333333333333 82 1 812 685965446 82 1 809 686227590 50 803 178 0 773 0 799
 0 +-.09 0 0 1 0 0 0 0 -1 82 1 802 678887558 17 774 0 770 772 771 752 776 784 0
 0 -19 724 100 0 7 0 17 13 0 S0 74 20 722 5 0 0 826 811 721 821 10 0 0 0 0 0 0 0
 0 0 0 0 0 0 0 0 81 2 826 229 711 7 0 721 0 0 827 0 81 2 721 239 713 7 826 10 0
 0 828 0 83 1 828 1 84 21 827 Yükseklik-Ekstrüzyon474 20 6 1 0 0 2 0 0 0 0 0 0 0
 0 0 0 0 0 0 0 0 0 0 0 0 80 2 5 829 830 9000 0 0 0 0 3 5 0 0 0 TFFFFFFFFFFFFFFF9
 1 79 18 830 MULTI_BODY_ID_20011 0 
