**ABCDEFGHIJKLMNOPQRSTUVWXYZabcdefghijklmnopqrstuvwxyz**************************
**PARASOLID !"#$%&'()*+,-./:;<=>?@[\]^_`{|}~0123456789**************************
**PART1;
MC=AMD64;
MC_MODEL=Intel64 Family 6 Model 141 Stepping 1, GenuineIntel;
MC_ID=unknown;
OS=Windows_NT;
OS_RELEASE=unknown;
FRU=Parasolid Version 34.1, build 247, 10- 7-2022;
APPL=SOLIDWORKS 2023-2023096;
SITE=;
USER=unknown;
FORMAT=text;
GUISE=transmit;
KEY=küçük masa;
FILE=küçük masa.x_t;
DATE=Tue Aug 15 18:25:29 2023;
**PART2;
SCH=SCH_3401247_34101;
USFLD_SIZE=0;
**PART3;
**END_OF_HEADER*****************************************************************
T51 : TRANSMIT FILE created by modeller version 340124723 SCH_3401247_34101_1300
6231 0 12 36 CCCI7 lattice222 0 CCCI4 mesh1006 0 I8 polyline1008 0 CCCCCCCDI5 ow
ner1040 0 CCCI16 boundary_lattice222 0 CCCI13 boundary_mesh1006 0 I17 boundary_p
olyline1008 0 CCCA16 index_map_offset0 0 1 dA9 index_map82 0 A17 node_id_index_m
ap82 0 A20 schema_embedding_map82 0 A5 child12 0 A14 lowest_node_id0 0 1 dA16 me
sh_offset_data206 0 Z1 1688 2 3 0 0 0 0 0 0 0 1e3 1e-8 0 4 0 1 0 1 1 5 0 6 7 8 0
 0 9 10 11 0 0 0 0 0 0 0 81 255 2 2 1598 12 1 13 0 0 0 0 14 70 11 CI9 list_type0
 0 1 uI10 notransmit0 0 1 lCCCDCCDI12 finger_index0 0 1 dI12 finger_block1012 0
 CZ3 0 4 T1 0 0 12 20 1 15 15 13 255 5 99 0 1 0 16 0 0 17 0 51 255 6 1258 0 18 1
9 0 0 +.0862415732163172 -.003 -.0509713635624899 0 1 0 .002 0 0 1 31 255 7 1270
 0 20 21 0 0 +.0862415732163172 -.002 -.0509713635624899 0 1 0 0 0 1 .002 29 255
 8 1127 0 11 22 0 .0882415732163172 -.002 -.0509713635624899 19 9 CCCCCCI5 frame
230 0 CA5 owner12 0 Z9 33 0 1 17 0 23 0 V0 16 255 10 1146 0 ?24 0 25 26 0 0 1 18
 255 11 1125 0 27 0 28 8 ?1 17 255 27 0 29 30 31 11 32 33 0 34 +18 28 1121 0 30
 11 35 22 ?1 17 30 0 29 36 27 28 37 38 0 39 +18 35 1118 0 40 28 41 42 ?1 29 22 1
123 0 28 42 8 .0882415732163172 -.002 .0509713635624899 29 42 1120 0 35 43 22 .0
882415732163172 -.083 -.0509713635624899 29 43 1117 0 41 44 42 .0882415732163172
 -.083 .0509713635624899 18 41 1115 0 36 35 45 43 ?1 29 44 1106 0 45 46 43 -.086
2415732163172 0 -.0509713635624899 18 45 1104 0 47 41 48 44 ?1 29 46 1102 0 48 4
9 44 .0862415732163172 0 -.0509713635624899 18 48 1100 0 50 45 51 46 ?1 29 49 10
98 0 51 52 46 .0862415732163172 0 .0509713635624899 18 51 1096 0 53 48 54 49 ?1
 29 52 1095 0 54 55 49 -.0862415732163172 0 .0509713635624899 18 54 1093 0 56 51
 57 52 ?1 29 55 1074 0 57 58 52 -.0862415732163172 -.002 -.0529713635624899 18 5
7 1072 0 59 54 60 55 ?1 29 58 1070 0 60 61 55 .0862415732163172 -.002 -.05297136
35624899 18 60 1068 0 62 57 63 58 ?1 29 61 1067 0 63 64 58 -.0862415732163172 -.
083 -.0529713635624899 18 63 1065 0 65 60 66 61 ?1 29 64 1064 0 66 67 61 .086241
5732163172 -.083 -.0529713635624899 18 66 1062 0 68 63 69 64 ?1 29 67 1043 0 69
 70 64 -.0862415732163172 -.002 .0529713635624899 18 69 1041 0 71 66 72 67 ?1 29
 70 1039 0 72 73 67 .0862415732163172 -.002 .0529713635624899 18 72 1037 0 74 69
 75 70 ?1 29 73 1036 0 75 76 70 .0862415732163172 -.083 .0529713635624899 18 75
 1034 0 24 72 77 73 ?1 29 76 1033 0 77 78 73 -.0862415732163172 -.083 .052971363
5624899 18 77 1031 0 79 75 80 76 ?1 29 78 1016 0 80 81 76 -.0882415732163172 -.0
02 -.0509713635624899 18 80 1014 0 82 77 83 78 ?1 29 81 1013 0 83 84 78 -.088241
5732163172 -.002 .0509713635624899 18 83 1011 0 85 80 86 81 ?1 29 84 1010 0 86 8
7 81 -.0882415732163172 -.083 .0509713635624899 18 86 1008 0 88 83 89 84 ?1 29 8
7 1007 0 89 90 84 -.0882415732163172 -.083 -.0509713635624899 18 89 1005 0 91 86
 92 87 ?1 29 90 523 0 92 93 87 .0632415732163172 -.003 -.0529713635624899 18 92
 521 0 94 89 95 90 ?1 29 93 168 0 95 96 90 -.0832415732163172 -.003 .02797136356
248985 18 95 166 0 97 92 98 93 ?1 29 96 165 0 98 99 93 -.0832415732163172 -.003
 .0469713635624898 18 98 163 0 100 95 101 96 ?1 29 99 158 0 101 102 96 -.0822415
732163172 -.003 .0479713635624898 18 101 156 0 103 98 104 99 ?1 29 102 155 0 104
 105 99 -.0882415732163172 -.003 .02797136356248985 18 104 153 0 106 101 107 102
 ?1 29 105 152 0 107 108 102 -.0632415732163172 -.003 .0529713635624899 18 107 1
50 0 109 104 110 105 ?1 29 108 317 0 111 112 105 -.0632415732163172 -.003 .04797
13635624898 18 111 232 0 113 114 115 108 ?1 29 112 319 0 110 116 108 -.083241573
2163172 -.083 .0469713635624898 18 110 243 0 117 107 118 112 ?1 29 116 320 0 118
 119 112 -.0832415732163172 -.083 .02797136356248985 18 118 242 0 120 110 121 11
6 ?1 29 119 321 0 121 122 116 -.0882415732163172 -.083 .02797136356248985 18 121
 241 0 123 118 124 119 ?1 29 122 323 0 124 125 119 -.0632415732163172 -.083 .052
9713635624899 18 124 239 0 126 121 127 122 ?1 29 125 324 0 127 128 122 -.0632415
732163172 -.083 .0479713635624898 18 127 238 0 129 124 114 125 ?1 29 128 325 0 1
14 130 125 -.0822415732163172 -.083 .0479713635624898 18 114 230 0 131 127 111 1
28 ?1 29 130 499 0 132 133 128 -.0632415732163172 -.003 -.0479713635624898 18 13
2 418 0 134 135 136 130 ?1 29 133 500 0 136 137 130 -.0632415732163172 -.003 -.0
529713635624899 18 136 427 0 138 132 139 133 ?1 29 137 502 0 139 140 133 -.08824
15732163172 -.003 -.02797136356248985 18 139 425 0 141 136 142 137 ?1 29 140 503
 0 142 143 137 -.0832415732163172 -.003 -.02797136356248985 18 142 423 0 144 139
 145 140 ?1 29 143 504 0 145 146 140 -.0832415732163172 -.003 -.0469713635624898
 18 145 421 0 147 142 148 143 ?1 29 146 505 0 148 149 143 -.0822415732163172 -.0
03 -.0479713635624898 18 148 419 0 150 145 151 146 ?1 29 149 506 0 115 152 146 -
.0632415732163172 -.083 -.0479713635624898 18 115 426 0 153 111 154 149 ?1 29 15
2 507 0 154 155 149 -.0632415732163172 -.083 -.0529713635624899 18 154 430 0 156
 115 157 152 ?1 29 155 509 0 157 158 152 -.0882415732163172 -.083 -.027971363562
48985 18 157 422 0 159 154 160 155 ?1 29 158 510 0 160 161 155 -.083241573216317
2 -.083 -.02797136356248985 18 160 420 0 162 157 163 158 ?1 29 161 511 0 163 164
 158 -.0832415732163172 -.083 -.0469713635624898 18 163 428 0 165 160 135 161 ?1
 29 164 512 0 135 166 161 -.0822415732163172 -.083 -.0479713635624898 18 135 417
 0 167 163 132 164 ?1 29 166 687 0 168 169 164 .0832415732163172 -.003 -.0469713
635624898 18 168 606 0 170 171 172 166 ?1 29 169 688 0 172 173 166 .083241573216
3172 -.003 -.02797136356248985 18 172 612 0 174 168 175 169 ?1 29 173 689 0 175
 176 169 .0882415732163172 -.003 -.02797136356248985 18 175 611 0 177 172 178 17
3 ?1 29 176 692 0 178 179 173 .0632415732163172 -.003 -.0479713635624898 18 178
 607 0 180 175 181 176 ?1 29 179 693 0 181 182 176 .0822415732163172 -.003 -.047
9713635624898 18 181 608 0 183 178 184 179 ?1 29 182 694 0 151 185 179 .08324157
32163172 -.083 -.0469713635624898 18 151 618 0 186 148 187 182 ?1 29 185 695 0 1
87 188 182 .0832415732163172 -.083 -.02797136356248985 18 187 617 0 189 151 190
 185 ?1 29 188 696 0 190 191 185 .0882415732163172 -.083 -.02797136356248985 18
 190 616 0 192 187 193 188 ?1 29 191 698 0 193 194 188 .0632415732163172 -.083 -
.0529713635624899 18 193 614 0 195 190 196 191 ?1 29 194 699 0 196 197 191 .0632
415732163172 -.083 -.0479713635624898 18 196 613 0 198 193 171 194 ?1 29 197 700
 0 171 199 194 .0822415732163172 -.083 -.0479713635624898 18 171 605 0 200 196 1
68 197 ?1 29 199 875 0 201 202 197 .0822415732163172 -.003 .0479713635624898 18
 201 794 0 203 204 205 199 ?1 29 202 876 0 205 206 199 .0632415732163172 -.003 .
0479713635624898 18 205 804 0 207 201 208 202 ?1 29 206 877 0 208 209 202 .06324
15732163172 -.003 .0529713635624899 18 208 802 0 210 205 211 206 ?1 29 209 879 0
 211 212 206 .0882415732163172 -.003 .02797136356248985 18 211 800 0 213 208 214
 209 ?1 29 212 880 0 214 215 209 .0832415732163172 -.003 .02797136356248985 18 2
14 798 0 216 211 217 212 ?1 29 215 881 0 217 218 212 .0832415732163172 -.003 .04
69713635624898 18 217 796 0 219 214 0 215 ?1 29 218 882 0 184 220 215 .082241573
2163172 -.083 .0479713635624898 18 184 803 0 221 181 222 218 ?1 29 220 883 0 222
 223 218 .0632415732163172 -.083 .0479713635624898 18 222 801 0 224 184 225 220
 ?1 29 223 884 0 225 226 220 .0632415732163172 -.083 .0529713635624899 18 225 80
6 0 227 222 228 223 ?1 29 226 886 0 228 229 223 .0882415732163172 -.083 .0279713
6356248985 18 228 797 0 230 225 231 226 ?1 29 229 887 0 231 232 226 .08324157321
63172 -.083 .02797136356248985 18 231 795 0 233 228 204 229 ?1 29 232 888 0 204
 0 229 .0832415732163172 -.083 .0469713635624898 18 204 793 0 234 231 201 232 ?1
 17 234 0 235 236 237 204 219 238 0 239 -15 255 235 810 0 237 240 0 17 236 0 235
 203 234 184 239 241 0 242 +17 237 0 235 234 203 217 243 244 0 245 -17 219 0 246
 247 248 217 234 238 0 237 +16 238 747 0 ?219 249 250 251 0 0 1 17 239 0 252 253
 242 204 236 241 0 248 -15 252 839 0 254 255 0 17 253 0 252 256 239 231 248 257
 0 258 -17 242 0 252 239 259 184 260 261 0 0 -16 241 740 0 ?236 257 262 263 0 0
 1 17 248 0 246 219 233 204 253 257 0 0 +15 246 814 0 247 264 0 17 233 0 246 248
 247 231 216 250 0 253 -16 257 744 0 ?248 265 241 266 0 0 1 16 265 748 0 ?258 26
7 257 268 0 0 1 30 255 266 873 0 257 263 268 0 +.0832415732163172 -.083 0 0 0 1
 31 263 874 0 241 0 266 0 +.0822415732163172 -.083 .0469713635624898 0 -1 0 0 0
 -1 .001 30 268 872 0 265 266 269 0 +0 -.083 .02797136356248985 -1 0 0 30 269 87
1 0 267 268 270 0 +.0882415732163172 -.083 0 0 0 1 16 267 770 0 ?254 271 265 269
 0 0 1 30 270 870 0 271 269 272 0 +0 -.083 .0529713635624899 -1 0 0 16 271 1035
 0 ?227 273 267 270 0 0 1 30 272 869 0 273 270 274 0 +.0632415732163172 -.083 0
 0 0 1 16 273 762 0 ?275 261 271 272 0 0 1 30 274 868 0 261 272 276 0 +0 -.083 .
0479713635624898 -1 0 0 16 261 766 0 ?260 277 273 274 0 0 1 31 276 867 0 244 274
 278 0 +.0822415732163172 -.003 .0469713635624898 0 -1 0 0 0 -1 .001 16 244 778
 0 ?243 279 20 276 0 0 1 30 278 866 0 279 276 280 0 +.0832415732163172 -.003 0 0
 0 1 16 279 790 0 ?245 281 244 278 0 0 1 30 280 865 0 281 278 282 0 +0 -.003 .02
797136356248985 -1 0 0 16 281 787 0 ?283 284 279 280 0 0 1 30 282 862 0 284 280
 285 0 +.0632415732163172 -.003 0 0 0 1 16 284 784 0 ?286 262 281 282 0 0 1 30 2
85 861 0 262 282 287 0 +0 -.003 .0479713635624898 -1 0 0 16 262 781 0 ?288 241 2
84 285 0 0 1 30 287 860 0 277 285 289 0 +.0822415732163172 -.083 .04797136356248
98 0 1 0 16 277 743 0 ?203 290 261 287 0 0 1 30 289 859 0 290 287 291 0 +.063241
5732163172 -.083 .0479713635624898 0 1 0 16 290 769 0 ?207 292 277 289 0 0 1 30
 291 858 0 292 289 293 0 +.0632415732163172 -.083 .0529713635624899 0 1 0 16 292
 765 0 ?210 294 290 291 0 0 1 30 293 856 0 294 291 295 0 +.0882415732163172 -.08
3 .02797136356248985 0 1 0 16 294 756 0 ?213 250 292 293 0 0 1 30 295 855 0 250
 293 251 0 +.0832415732163172 -.083 .02797136356248985 0 1 0 16 250 751 0 ?216 2
38 294 295 0 0 1 30 251 854 0 238 295 296 0 +.0832415732163172 -.083 .0469713635
624898 0 1 0 31 296 686 0 297 251 298 0 +.0822415732163172 -.083 -.0469713635624
898 0 -1 0 0 0 -1 .001 16 297 552 0 ?299 300 301 296 0 0 1 30 298 685 0 300 296
 302 0 +0 -.083 -.0479713635624898 -1 0 0 16 300 582 0 ?198 303 297 298 0 0 1 30
 302 684 0 303 298 304 0 +.0632415732163172 -.083 0 0 0 -1 16 303 585 0 ?195 305
 300 302 0 0 1 30 304 683 0 305 302 306 0 +0 -.083 -.0529713635624899 1 0 0 16 3
05 588 0 ?307 308 303 304 0 0 1 30 306 682 0 308 304 309 0 +.0882415732163172 -.
083 0 0 0 1 16 308 1119 0 ?192 310 305 306 0 0 1 30 309 681 0 310 306 311 0 +0 -
.083 -.02797136356248985 -1 0 0 16 310 596 0 ?189 312 308 309 0 0 1 30 311 680 0
 312 309 313 0 +.0832415732163172 -.083 0 0 0 -1 16 312 599 0 ?186 314 310 311 0
 0 1 31 313 679 0 249 311 315 0 +.0822415732163172 -.003 -.0469713635624898 0 -1
 0 0 0 -1 .001 16 249 602 0 ?316 317 238 313 0 0 1 30 315 678 0 317 313 318 0 +0
 -.003 -.0479713635624898 -1 0 0 16 317 556 0 ?180 319 249 315 0 0 1 30 318 677
 0 319 315 320 0 +.0632415732163172 -.003 0 0 0 -1 16 319 560 0 ?321 322 317 318
 0 0 1 30 320 674 0 322 318 323 0 +0 -.003 -.02797136356248985 -1 0 0 16 322 574
 0 ?174 301 319 320 0 0 1 30 323 673 0 301 320 324 0 +.0832415732163172 -.003 0
 0 0 -1 16 301 578 0 ?325 297 322 323 0 0 1 30 324 672 0 314 323 326 0 +.0832415
732163172 -.083 -.0469713635624898 0 1 0 16 314 555 0 ?170 327 312 324 0 0 1 30
 326 671 0 327 324 328 0 +.0832415732163172 -.083 -.02797136356248985 0 1 0 16 3
27 581 0 ?329 330 314 326 0 0 1 30 328 670 0 330 326 331 0 +.0882415732163172 -.
083 -.02797136356248985 0 1 0 16 330 577 0 ?332 333 327 328 0 0 1 30 331 668 0 3
33 328 334 0 +.0632415732163172 -.083 -.0529713635624899 0 1 0 16 333 568 0 ?94
 335 330 331 0 0 1 30 334 667 0 335 331 336 0 +.0632415732163172 -.083 -.0479713
635624898 0 1 0 16 335 563 0 ?337 338 333 334 0 0 1 30 336 666 0 338 334 339 0 +
.0822415732163172 -.083 -.0479713635624898 0 1 0 16 338 559 0 ?183 340 335 336 0
 0 1 30 339 498 0 341 336 342 0 +0 -.083 -.0479713635624898 1 0 0 16 341 364 0 ?
343 344 345 339 0 0 1 31 342 497 0 344 339 346 0 --.0822415732163172 -.083 -.046
9713635624898 0 -1 0 0 0 -1 .001 16 344 394 0 ?165 347 341 342 0 0 1 30 346 496
 0 347 342 348 0 +-.0832415732163172 -.083 0 0 0 -1 16 347 372 0 ?349 350 344 34
6 0 0 1 30 348 495 0 350 346 351 0 +0 -.083 -.02797136356248985 1 0 0 16 350 376
 0 ?352 353 347 348 0 0 1 30 351 494 0 353 348 354 0 +-.0882415732163172 -.083 0
 0 0 -1 16 353 397 0 ?355 356 350 351 0 0 1 30 354 493 0 356 351 357 0 +0 -.083
 -.0529713635624899 1 0 0 16 356 1066 0 ?156 358 353 354 0 0 1 30 357 492 0 358
 354 359 0 +-.0632415732163172 -.083 0 0 0 -1 16 358 390 0 ?360 361 356 357 0 0
 1 30 359 491 0 340 357 362 0 +0 -.003 -.0479713635624898 1 0 0 16 340 405 0 ?36
3 364 338 359 0 0 1 31 362 490 0 364 359 365 0 --.0822415732163172 -.003 -.04697
13635624898 0 -1 0 0 0 -1 .001 16 364 368 0 ?366 367 340 362 0 0 1 30 365 489 0
 367 362 368 0 +-.0832415732163172 -.003 0 0 0 -1 16 367 414 0 ?369 370 364 365
 0 0 1 30 368 488 0 370 365 371 0 +0 -.003 -.02797136356248985 1 0 0 16 370 411
 0 ?372 345 367 368 0 0 1 30 371 485 0 345 368 373 0 +-.0632415732163172 -.003 0
 0 0 -1 16 345 408 0 ?374 341 370 371 0 0 1 30 373 484 0 361 371 375 0 +-.063241
5732163172 -.083 -.0479713635624898 0 1 0 16 361 367 0 ?134 376 358 373 0 0 1 30
 375 483 0 376 373 377 0 +-.0632415732163172 -.083 -.0529713635624899 0 1 0 16 3
76 393 0 ?378 379 361 375 0 0 1 30 377 481 0 379 375 380 0 +-.0882415732163172 -
.083 -.02797136356248985 0 1 0 16 379 384 0 ?141 381 376 377 0 0 1 30 380 480 0
 381 377 382 0 +-.0832415732163172 -.083 -.02797136356248985 0 1 0 16 381 379 0
 ?144 383 379 380 0 0 1 30 382 479 0 383 380 384 0 +-.0832415732163172 -.083 -.0
469713635624898 0 1 0 16 383 375 0 ?147 385 381 382 0 0 1 30 384 478 0 385 382 3
86 0 +-.0822415732163172 -.083 -.0479713635624898 0 1 0 16 385 371 0 ?150 387 38
3 384 0 0 1 31 386 311 0 388 384 389 0 +-.0822415732163172 -.083 .04697136356248
98 0 -1 0 0 0 -1 .001 16 388 177 0 ?390 391 392 386 0 0 1 30 389 310 0 391 386 3
93 0 +0 -.083 .0479713635624898 1 0 0 16 391 207 0 ?129 394 388 389 0 0 1 30 393
 309 0 394 389 395 0 +-.0632415732163172 -.083 0 0 0 1 16 394 210 0 ?126 396 391
 393 0 0 1 30 395 308 0 396 393 397 0 +0 -.083 .0529713635624899 -1 0 0 16 396 2
13 0 ?398 399 394 395 0 0 1 30 397 307 0 399 395 400 0 +-.0882415732163172 -.083
 0 0 0 -1 16 399 1009 0 ?123 401 396 397 0 0 1 30 400 306 0 401 397 402 0 +0 -.0
83 .02797136356248985 1 0 0 16 401 221 0 ?120 403 399 400 0 0 1 30 402 305 0 403
 400 404 0 +-.0832415732163172 -.083 0 0 0 1 16 403 224 0 ?117 405 401 402 0 0 1
 31 404 304 0 387 402 406 0 +-.0822415732163172 -.003 .0469713635624898 0 -1 0 0
 0 -1 .001 16 387 227 0 ?100 407 385 404 0 0 1 30 406 303 0 407 404 408 0 +0 -.0
03 .0479713635624898 1 0 0 16 407 181 0 ?409 410 387 406 0 0 1 30 408 302 0 410
 406 411 0 +-.0632415732163172 -.003 0 0 0 1 16 410 185 0 ?412 413 407 408 0 0 1
 30 411 299 0 413 408 414 0 +0 -.003 .02797136356248985 1 0 0 16 413 199 0 ?415
 392 410 411 0 0 1 30 414 298 0 392 411 416 0 +-.0832415732163172 -.003 0 0 0 1
 16 392 203 0 ?417 388 413 414 0 0 1 30 416 297 0 405 414 418 0 +-.0832415732163
172 -.083 .0469713635624898 0 1 0 16 405 180 0 ?419 420 403 416 0 0 1 30 418 296
 0 420 416 421 0 +-.0832415732163172 -.083 .02797136356248985 0 1 0 16 420 206 0
 ?422 423 405 418 0 0 1 30 421 295 0 423 418 424 0 +-.0882415732163172 -.083 .02
797136356248985 0 1 0 16 423 202 0 ?425 426 420 421 0 0 1 30 424 293 0 426 421 4
27 0 +-.0632415732163172 -.083 .0529713635624899 0 1 0 16 426 193 0 ?428 429 423
 424 0 0 1 30 427 292 0 429 424 430 0 +-.0632415732163172 -.083 .047971363562489
8 0 1 0 16 429 188 0 ?431 432 426 427 0 0 1 30 430 291 0 432 427 433 0 +-.082241
5732163172 -.083 .0479713635624898 0 1 0 16 432 184 0 ?434 435 429 430 0 0 1 30
 433 7 0 435 430 436 0 +.0882415732163172 -.003 -.0529713635624899 0 0 -1 16 435
 713 0 ?177 437 432 433 0 0 1 30 436 11 0 437 433 438 0 +-.0882415732163172 -.00
3 -.0529713635624899 -1 0 0 16 437 522 0 ?138 439 435 436 0 0 1 30 438 15 0 439
 436 440 0 +-.0882415732163172 -.003 -.0529713635624899 0 0 1 16 439 338 0 ?106
 441 437 438 0 0 1 30 440 19 0 441 438 442 0 +-.0882415732163172 -.003 .05297136
35624899 1 0 0 16 441 151 0 ?443 444 439 440 0 0 1 30 442 1017 0 444 440 445 0 -
-.0882415732163172 -.002 -.0529713635624899 0 0 1 16 444 1015 0 ?82 446 441 442
 0 0 1 30 445 1019 0 446 442 447 0 --.0882415732163172 -.003 -.0509713635624899
 0 1 0 16 446 1018 0 ?91 448 444 445 0 0 1 30 447 1022 0 448 445 449 0 +-.088241
5732163172 -.003 .0509713635624899 0 1 0 16 448 1020 0 ?450 451 446 447 0 0 1 30
 449 1040 0 451 447 452 0 +.0862415732163172 -.003 .0529713635624899 0 1 0 16 45
1 1038 0 ?74 453 448 449 0 0 1 30 452 1044 0 453 449 454 0 --.0882415732163172 -
.002 .0529713635624899 1 0 0 16 453 1042 0 ?71 455 451 452 0 0 1 30 454 1047 0 4
55 452 456 0 --.0862415732163172 -.003 .0529713635624899 0 1 0 16 455 1045 0 ?79
 457 453 454 0 0 1 31 456 1058 0 457 454 458 0 +-.0862415732163172 -.083 .050971
3635624899 0 -1 0 0 0 -1 .002 16 457 1056 0 ?88 459 455 456 0 0 1 30 458 1071 0
 459 456 460 0 -.0862415732163172 -.003 -.0529713635624899 0 1 0 16 459 1069 0 ?
68 461 457 458 0 0 1 30 460 1075 0 461 458 462 0 --.0882415732163172 -.002 -.052
9713635624899 -1 0 0 16 461 1073 0 ?62 463 459 460 0 0 1 30 462 1078 0 463 460 4
64 0 +-.0862415732163172 -.003 -.0529713635624899 0 1 0 16 463 1076 0 ?59 465 46
1 462 0 0 1 31 464 1089 0 465 462 466 0 +-.0862415732163172 -.083 -.050971363562
4899 0 -1 0 0 0 -1 .002 16 465 1087 0 ?65 467 463 464 0 0 1 30 466 1099 0 467 46
4 468 0 +0 0 .0509713635624899 1 0 0 16 467 1097 0 ?53 469 465 466 0 0 1 30 468
 1103 0 469 466 470 0 +.0862415732163172 0 0 0 0 -1 16 469 1101 0 ?50 471 467 46
8 0 0 1 30 470 1107 0 471 468 472 0 +0 0 -.0509713635624899 -1 0 0 16 471 1105 0
 ?47 473 469 470 0 0 1 30 472 1110 0 473 470 474 0 +-.0862415732163172 0 0 0 0 1
 16 473 1108 0 ?475 476 471 472 0 0 1 30 474 1124 0 476 472 477 0 -.088241573216
3172 -.003 .0509713635624899 0 1 0 16 476 1122 0 ?36 38 473 474 0 0 1 30 477 112
8 0 38 474 478 0 -.0882415732163172 -.002 -.0529713635624899 0 0 -1 16 38 1126 0
 ?30 33 476 477 0 0 1 30 478 1131 0 33 477 479 0 +.0882415732163172 -.003 -.0509
713635624899 0 1 0 16 33 1129 0 ?27 25 38 478 0 0 1 31 479 1142 0 25 478 26 0 +.
0862415732163172 -.083 -.0509713635624899 0 -1 0 0 0 -1 .002 16 25 1140 0 ?40 10
 33 479 0 0 1 31 26 1148 0 10 479 480 0 +.0862415732163172 -.083 .05097136356248
99 0 -1 0 0 0 -1 .002 31 480 1281 0 481 26 482 0 --.0862415732163172 -.002 .0509
713635624899 0 1 0 0 0 1 .002 16 481 1237 0 ?85 483 0 480 0 0 1 31 482 1280 0 48
3 480 484 0 +-.0862415732163172 -.002 .0509713635624899 -1 0 0 0 0 1 .002 16 483
 1233 0 ?56 485 481 482 0 0 1 31 484 1279 0 485 482 486 0 +-.0862415732163172 -.
002 .0509713635624899 0 0 1 1 0 0 .002 16 485 1232 0 ?487 488 483 484 0 0 1 31 4
86 1278 0 488 484 489 0 -.0862415732163172 -.002 .0509713635624899 1 0 0 0 0 -1
 .002 16 488 1230 0 ?490 491 485 486 0 0 1 31 489 1277 0 491 486 492 0 --.086241
5732163172 -.002 -.0509713635624899 0 0 -1 -1 0 0 .002 16 491 1227 0 ?493 494 48
8 489 0 0 1 31 492 1276 0 494 489 495 0 +.0862415732163172 -.002 .05097136356248
99 0 1 0 0 0 1 .002 16 494 1225 0 ?496 497 491 492 0 0 1 31 495 1275 0 497 492 4
98 0 +.0862415732163172 -.002 .0509713635624899 0 0 1 1 0 0 .002 16 497 1224 0 ?
499 500 494 495 0 0 1 31 498 1274 0 500 495 501 0 +-.0862415732163172 -.002 -.05
09713635624899 -1 0 0 0 0 1 .002 16 500 1223 0 ?502 503 497 498 0 0 1 31 501 127
3 0 503 498 504 0 +-.0862415732163172 -.002 -.0509713635624899 0 1 0 0 0 1 .002
 16 503 1222 0 ?505 506 500 501 0 0 1 31 504 1272 0 506 501 21 0 -.0862415732163
172 -.002 -.0509713635624899 0 0 -1 -1 0 0 .002 16 506 1217 0 ?507 508 503 504 0
 0 1 31 21 1271 0 508 504 7 0 -.0862415732163172 -.002 -.0509713635624899 1 0 0
 0 0 -1 .002 16 508 1214 0 ?509 20 506 21 0 0 1 17 509 0 510 511 512 60 513 508
 0 0 +16 20 1209 0 ?514 244 508 7 0 0 1 17 514 0 515 513 516 60 34 20 0 509 +15
 515 1183 0 516 517 0 17 513 0 515 516 514 48 509 508 0 512 -17 516 0 515 514 51
3 11 507 506 0 37 -17 34 0 518 32 519 11 514 20 0 516 -15 518 1181 0 34 18 0 17
 32 0 518 520 34 35 27 33 0 0 -17 519 0 518 34 520 60 68 459 0 514 -17 520 0 518
 519 32 66 40 25 0 0 -17 68 0 521 522 62 66 519 459 0 307 +15 521 87 0 523 524 0
 17 522 0 521 94 68 193 307 305 0 0 -17 62 0 521 68 59 60 511 461 0 519 +17 307
 0 525 40 195 66 522 305 0 520 +15 525 651 0 307 526 0 17 40 0 525 192 307 35 52
0 25 0 31 +17 195 0 525 307 198 193 527 303 0 528 +17 198 0 525 195 529 196 530
 300 0 531 +17 527 0 532 337 528 196 195 303 0 0 -17 528 0 532 527 321 193 94 33
3 0 522 -15 532 630 0 321 533 0 17 321 0 532 528 337 92 534 319 0 535 +17 94 0 5
21 138 522 92 528 333 0 321 +17 138 0 521 536 94 136 535 437 0 378 +17 536 0 521
 523 138 154 378 376 0 360 -17 535 0 537 534 374 92 138 437 0 0 -17 378 0 538 53
9 360 136 536 376 0 374 +15 538 460 0 539 540 0 17 539 0 538 153 378 132 374 345
 0 363 -17 360 0 538 378 153 154 541 358 0 0 +17 374 0 537 535 363 136 539 345 0
 0 +15 537 716 0 542 16 0 17 363 0 537 374 543 132 544 340 0 0 +17 543 0 537 363
 369 148 366 364 0 0 -17 544 0 545 167 134 148 363 340 0 543 -15 545 434 0 544 5
46 0 17 167 0 545 343 544 135 150 385 0 547 -17 134 0 545 544 343 132 153 361 0
 539 +17 343 0 545 134 167 115 548 341 0 541 +17 153 0 538 360 539 115 134 361 0
 343 -17 548 0 549 165 541 135 343 341 0 0 -17 541 0 549 548 156 115 360 358 0 0
 -15 549 463 0 355 550 0 17 156 0 549 541 65 154 523 356 0 536 +17 65 0 549 156
 355 63 551 465 0 523 +17 523 0 521 59 536 63 156 356 0 552 -17 59 0 521 62 523
 57 552 463 0 511 +17 552 0 553 551 554 63 59 463 0 0 -15 553 1185 0 551 555 0 1
7 551 0 553 556 552 89 65 465 0 0 -17 554 0 553 552 556 57 505 503 0 502 -17 556
 0 553 554 551 80 91 446 0 505 -17 505 0 557 558 502 80 554 503 0 493 +17 502 0
 557 505 558 57 559 500 0 0 +15 557 1193 0 502 560 0 17 558 0 557 502 505 45 493
 491 0 561 -17 559 0 510 512 511 45 502 500 0 558 -15 510 1187 0 509 562 0 17 51
2 0 510 509 559 48 47 471 0 0 -17 511 0 510 559 509 57 62 461 0 554 -17 47 0 563
 475 50 45 512 471 0 559 +15 563 1094 0 47 564 0 17 475 0 563 53 47 54 561 473 0
 0 +17 50 0 563 47 53 48 565 469 0 507 +17 53 0 563 50 475 51 566 467 0 565 +17
 565 0 567 568 507 51 50 469 0 499 -17 507 0 567 565 37 48 516 506 0 513 +15 567
 1189 0 507 569 0 17 37 0 567 507 568 11 30 38 0 0 -17 568 0 567 37 565 28 499 4
97 0 496 -17 499 0 570 571 496 51 568 497 0 490 +17 496 0 570 499 571 28 572 494
 0 0 +15 570 1195 0 496 573 0 17 571 0 570 496 499 72 490 488 0 574 -17 572 0 57
5 576 39 72 496 494 0 571 -15 575 1191 0 577 578 0 17 576 0 575 577 572 75 74 45
1 0 0 -17 39 0 575 572 577 28 36 476 0 568 -17 577 0 575 39 576 41 24 10 0 0 -17
 36 0 29 579 30 41 39 476 0 254 +15 29 89 0 31 580 0 17 579 0 29 213 36 228 254
 267 0 256 -17 254 0 252 24 256 41 579 267 0 577 +17 24 0 252 227 254 75 577 10
 0 581 +17 256 0 252 254 253 228 258 265 0 0 -17 258 0 582 216 230 231 256 265 0
 0 +15 582 818 0 583 584 0 17 216 0 582 583 258 214 233 250 0 247 +17 230 0 582
 258 583 228 213 294 0 579 -17 583 0 582 230 216 211 283 281 0 542 -17 213 0 29
 177 579 211 230 294 0 583 +17 177 0 29 585 213 175 542 435 0 332 +17 585 0 29 3
1 177 190 332 330 0 586 -17 542 0 537 283 587 211 177 435 0 0 -17 332 0 588 174
 586 175 585 330 0 587 +15 588 644 0 174 589 0 17 174 0 588 590 332 172 587 322
 0 329 +17 586 0 588 332 590 190 189 310 0 0 -17 587 0 537 542 591 175 174 322 0
 0 -17 591 0 537 587 316 172 325 301 0 0 -17 316 0 537 591 592 168 593 249 0 0 +
17 325 0 594 595 329 168 591 301 0 316 +15 594 648 0 325 596 0 17 595 0 594 597
 325 151 170 314 0 299 -17 329 0 594 325 597 172 590 327 0 591 +17 597 0 594 329
 595 187 186 312 0 0 -17 590 0 588 586 174 187 329 327 0 597 -17 186 0 525 529 1
89 151 597 312 0 595 +17 529 0 525 198 186 171 299 297 0 0 -17 189 0 525 186 192
 187 586 310 0 590 +17 192 0 525 189 40 190 31 308 0 585 +17 31 0 29 27 585 35 1
92 308 0 32 -17 299 0 598 170 200 151 529 297 0 0 +15 598 622 0 593 599 0 17 170
 0 598 593 299 168 595 314 0 325 +17 200 0 598 299 593 171 183 338 0 530 -17 593
 0 598 200 170 181 316 249 0 592 -17 183 0 600 180 530 181 200 338 0 593 +17 530
 0 600 183 531 171 198 300 0 529 -15 600 626 0 180 601 0 17 531 0 600 530 180 19
6 337 335 0 527 -17 180 0 600 531 183 178 592 317 0 337 +17 337 0 532 321 527 17
8 531 335 0 534 +17 534 0 537 592 535 178 321 319 0 0 -17 592 0 537 316 534 181
 180 317 0 0 -14 255 601 623 602 ?533 599 600 5 603 -0 0 533 599 23 81 1 602 160
0 604 601 605 0 0 606 607 14 533 627 606 ?589 601 532 5 608 -0 0 589 601 23 14 5
99 619 609 ?601 550 598 5 610 +0 0 601 550 23 50 255 603 658 0 601 608 610 0 +0
 -.083 -.0479713635624898 0 0 -1 -1 0 0 13 23 34 0 0 0 0 0 0 9 16 14 16 547 611
 ?580 0 537 5 612 -0 0 580 0 23 81 1 611 1607 604 16 613 0 609 614 615 14 580 90
 614 ?616 16 29 5 617 +0 0 616 16 23 50 612 3 0 16 618 619 0 +0 -.003 0 0 1 0 0
 0 1 51 618 282 0 620 621 612 0 --.0822415732163172 -.083 .0469713635624898 0 1
 0 .001 0 0 1 50 619 70 0 564 612 622 0 +0 0 0 0 1 0 0 0 1 14 564 48 623 ?620 52
4 563 5 619 +0 0 620 524 23 50 622 91 0 616 619 624 0 +-.0882415732163172 -.003
 .0529713635624899 0 0 1 1 0 0 14 616 84 625 ?626 580 627 5 622 +0 0 626 580 23
 50 624 92 0 626 622 628 0 +-.0882415732163172 -.003 -.0529713635624899 -1 0 0 0
 0 1 14 626 86 629 ?524 616 630 5 624 +0 0 524 616 23 50 628 93 0 524 624 617 0
 +-.0882415732163172 -.003 -.0529713635624899 0 0 -1 -1 0 0 14 524 88 631 ?564 6
26 521 5 628 +0 0 564 626 23 50 617 94 0 580 628 632 0 +.0882415732163172 -.003
 -.0529713635624899 1 0 0 0 0 -1 51 632 1269 0 633 617 634 0 +-.0862415732163172
 -.003 .0509713635624899 0 1 0 .002 0 0 1 14 633 1202 635 ?0 636 637 5 632 +0 0
 0 636 23 53 255 634 1268 0 636 632 638 0 +-.0862415732163172 -.002 .05097136356
24899 .002 0 1 0 0 0 1 14 636 1200 639 ?633 640 641 5 634 +0 0 633 640 23 51 638
 1267 0 640 634 642 0 +0 -.002 .0509713635624899 1 0 0 .002 0 0 -1 14 640 1198 6
43 ?636 644 645 5 638 +0 0 636 644 23 51 642 1266 0 644 638 646 0 +-.08624157321
63172 -.002 0 0 0 1 .002 1 0 0 14 644 1196 647 ?640 573 648 5 642 +0 0 640 573 2
3 53 646 1265 0 573 642 649 0 +.0862415732163172 -.002 .0509713635624899 .002 1
 0 0 0 0 -1 14 573 1194 650 ?644 560 570 5 646 +0 0 644 560 23 53 649 1264 0 560
 646 651 0 +-.0862415732163172 -.002 -.0509713635624899 .002 0 0 -1 -1 0 0 14 56
0 1192 652 ?573 578 557 5 649 +0 0 573 578 23 51 651 1263 0 578 649 653 0 +.0862
415732163172 -.003 .0509713635624899 0 1 0 .002 0 0 1 14 578 1190 654 ?560 569 5
75 5 651 +0 0 560 569 23 51 653 1262 0 569 651 655 0 +.0862415732163172 -.002 0
 0 0 -1 .002 -1 0 0 14 569 1188 656 ?578 562 567 5 653 +0 0 578 562 23 51 655 12
61 0 562 653 657 0 +0 -.002 -.0509713635624899 -1 0 0 .002 0 0 1 14 562 1186 658
 ?569 555 510 5 655 +0 0 569 555 23 51 657 1260 0 555 655 19 0 +-.08624157321631
72 -.003 -.0509713635624899 0 1 0 .002 0 0 1 14 555 1184 659 ?562 517 553 5 657
 +0 0 562 517 23 53 19 1259 0 517 657 6 0 +.0862415732163172 -.002 -.05097136356
24899 .002 0 0 -1 -1 0 0 14 517 1182 660 ?555 18 515 5 19 +0 0 555 18 23 81 1 66
0 1644 604 517 661 0 659 662 663 14 18 1180 662 ?517 255 518 5 6 +0 0 517 255 23
 81 1 662 1646 604 18 664 0 660 665 666 14 255 837 665 ?18 667 252 5 668 +0 0 18
 667 23 81 1 665 1648 604 255 669 0 662 670 671 14 667 833 670 ?255 672 673 5 67
4 +0 0 255 672 23 50 668 853 0 255 0 674 0 +0 -.083 0 0 -1 0 0 0 -1 50 674 851 0
 667 668 675 0 +0 -.083 .0479713635624898 0 0 -1 -1 0 0 50 675 850 0 672 674 676
 0 +.0632415732163172 -.083 0 -1 0 0 0 0 1 14 672 829 677 ?667 584 678 5 675 +0
 0 667 584 23 50 676 847 0 584 675 679 0 +0 -.083 .02797136356248985 0 0 -1 -1 0
 0 14 584 815 680 ?672 264 582 5 676 +0 0 672 264 23 50 679 846 0 264 676 681 0
 +.0832415732163172 -.083 0 -1 0 0 0 0 1 14 264 811 682 ?584 240 246 5 679 +0 0
 584 240 23 51 681 845 0 240 679 683 0 -.0822415732163172 -.083 .046971363562489
8 0 1 0 .001 0 0 1 14 240 807 684 ?264 526 235 5 681 +0 0 264 526 23 50 683 665
 0 526 681 685 0 +0 -.083 0 0 -1 0 0 0 -1 14 526 649 686 ?240 596 525 5 683 +0 0
 240 596 23 50 685 663 0 596 683 687 0 +.0832415732163172 -.083 0 1 0 0 0 0 -1 1
4 596 645 688 ?526 589 594 5 685 -0 0 526 589 23 50 687 662 0 589 685 608 0 +0 -
.083 -.02797136356248985 0 0 -1 -1 0 0 14 589 641 689 ?596 533 588 5 687 -0 0 59
6 533 23 50 608 659 0 533 687 603 0 +.0632415732163172 -.083 0 1 0 0 0 0 -1 81 1
 689 1664 604 589 690 0 688 691 692 80 7 CCCCCDI12 legal_owners0 16 1 lCZ1 604 6
93 694 9000 1 1 1 1 1 1 1 1 0 FFFFTFTFFFFFFFFF1 81 3 690 1663 695 589 696 689 69
7 698 699 0 0 81 1 688 1662 604 596 697 0 686 689 700 81 1 691 1666 604 701 698
 0 689 702 703 82 255 1 692 735772784 14 701 274 691 ?546 704 705 5 706 +0 0 546
 704 23 81 3 698 1665 695 701 707 691 690 708 709 0 0 81 1 702 1668 604 550 708
 0 691 710 711 82 1 703 681508979 14 550 461 702 ?599 540 549 5 712 +0 0 599 540
 23 81 3 708 1667 695 550 713 702 698 714 715 0 0 81 1 710 1670 604 540 714 0 70
2 716 717 82 1 711 702611571 14 540 457 710 ?550 718 538 5 719 +0 0 550 718 23 8
1 3 714 1669 695 540 720 710 708 721 722 0 0 81 1 716 1672 604 718 721 0 710 723
 724 82 1 717 714735728 14 718 443 716 ?540 725 726 5 727 +0 0 540 725 23 81 3 7
21 1671 695 718 728 716 714 729 730 0 0 81 1 723 1674 604 725 729 0 716 731 732
 82 1 724 715456624 14 725 439 723 ?718 733 734 5 735 +0 0 718 733 23 81 3 729 1
673 695 725 736 723 721 737 738 0 0 81 1 731 1676 604 733 737 0 723 739 740 82 1
 732 715653232 14 733 435 731 ?725 546 741 5 742 -0 0 725 546 23 81 3 737 1675 6
95 733 743 731 729 744 745 0 0 81 1 739 1678 604 546 744 0 731 746 747 82 1 740
 715784304 14 546 431 739 ?733 701 545 5 748 +0 0 733 701 23 81 3 744 1677 695 5
46 749 739 737 750 751 0 0 81 1 746 1680 604 704 750 0 739 752 753 82 1 747 7161
11984 14 704 270 746 ?701 754 755 5 756 -0 0 701 754 23 81 3 750 1679 695 704 75
7 746 744 758 759 0 0 81 1 752 1682 604 754 758 0 746 760 761 82 1 753 693633136
 14 754 266 752 ?704 762 763 5 764 -0 0 704 762 23 81 3 758 1681 695 754 765 752
 750 766 767 0 0 81 1 760 1684 604 762 766 0 752 768 769 82 1 761 693895280 14 7
62 252 760 ?754 770 771 5 772 -0 0 754 770 23 81 3 766 1683 695 762 773 760 758
 774 775 0 0 81 1 768 1686 604 770 774 0 760 776 777 82 1 769 694681712 14 770 2
48 768 ?762 620 778 5 621 -0 0 762 620 23 81 3 774 1685 695 770 779 768 766 780
 781 0 0 81 1 776 1688 604 620 780 0 768 0 782 82 1 777 694943856 14 620 244 776
 ?770 564 783 5 618 +0 0 770 564 23 81 3 780 1687 695 620 784 776 774 0 785 0 0
 82 1 782 695206000 80 3 695 786 787 9000 0 0 0 0 3 5 0 0 0 FFFFTFFFFFFFFFFF1 1
 1 81 1 784 1413 788 620 0 780 789 779 790 82 6 785 0 1793044826 31051660 0 0 0
 80 1 788 0 791 8001 0 0 0 0 3 5 0 0 0 FFFFTFTFFFFFFFFF2 81 1 789 1412 788 564 0
 792 793 784 794 81 1 779 1414 788 770 0 774 784 773 795 83 255 3 790 .792156862
745098 .819607843137255 .933333333333333 81 1 773 1415 788 762 0 766 779 765 796
 83 3 795 .792156862745098 .819607843137255 .933333333333333 81 1 765 1416 788 7
54 0 758 773 757 797 83 3 796 .792156862745098 .819607843137255 .933333333333333
 81 1 757 1417 788 704 0 750 765 707 798 83 3 797 .792156862745098 .819607843137
255 .933333333333333 81 1 707 1418 788 701 0 698 757 749 799 83 3 798 .792156862
745098 .819607843137255 .933333333333333 81 1 749 1419 788 546 0 744 707 743 800
 83 3 799 .792156862745098 .819607843137255 .933333333333333 81 1 743 1420 788 7
33 0 737 749 736 801 83 3 800 .792156862745098 .819607843137255 .933333333333333
 81 1 736 1421 788 725 0 729 743 728 802 83 3 801 .792156862745098 .819607843137
255 .933333333333333 81 1 728 1422 788 718 0 721 736 720 803 83 3 802 .792156862
745098 .819607843137255 .933333333333333 81 1 720 1423 788 540 0 714 728 713 804
 83 3 803 .792156862745098 .819607843137255 .933333333333333 81 1 713 1424 788 5
50 0 708 720 805 806 83 3 804 .792156862745098 .819607843137255 .933333333333333
 81 1 805 1425 788 599 0 807 713 808 809 83 3 806 .792156862745098 .819607843137
255 .933333333333333 81 3 807 1603 695 599 805 609 810 613 811 0 0 81 1 808 1426
 788 601 0 605 805 812 813 83 3 809 .792156862745098 .819607843137255 .933333333
333333 81 3 605 1599 695 601 808 602 0 810 814 0 0 81 1 812 1427 788 533 0 810 8
08 696 815 83 3 813 .792156862745098 .819607843137255 .933333333333333 81 3 810
 1601 695 533 812 606 605 807 816 0 0 81 1 696 1428 788 589 0 690 812 817 818 83
 3 815 .792156862745098 .819607843137255 .933333333333333 81 1 817 1429 788 596
 0 697 696 819 820 83 3 818 .792156862745098 .819607843137255 .933333333333333 8
1 3 697 1661 695 596 817 688 821 690 822 0 0 81 1 819 1430 788 526 0 821 817 823
 824 83 3 820 .792156862745098 .819607843137255 .933333333333333 81 3 821 1659 6
95 526 819 686 825 697 826 0 0 81 1 823 1431 788 240 0 825 819 827 828 83 3 824
 .792156862745098 .819607843137255 .933333333333333 81 3 825 1657 695 240 823 68
4 829 821 830 0 0 81 1 827 1432 788 264 0 829 823 831 832 83 3 828 .792156862745
098 .819607843137255 .933333333333333 81 3 829 1655 695 264 827 682 833 825 834
 0 0 81 1 831 1433 788 584 0 833 827 835 836 83 3 832 .792156862745098 .81960784
3137255 .933333333333333 81 3 833 1653 695 584 831 680 837 829 838 0 0 81 1 835
 1434 788 672 0 837 831 839 840 83 3 836 .792156862745098 .819607843137255 .9333
33333333333 81 3 837 1651 695 672 835 677 841 833 842 0 0 81 1 839 1435 788 667
 0 841 835 843 844 83 3 840 .792156862745098 .819607843137255 .933333333333333 8
1 3 841 1649 695 667 839 670 669 837 845 0 0 81 1 843 1436 788 255 0 669 839 846
 847 83 3 844 .792156862745098 .819607843137255 .933333333333333 81 3 669 1647 6
95 255 843 665 664 841 848 0 0 81 1 846 1437 788 18 0 664 843 849 850 83 3 847 .
792156862745098 .819607843137255 .933333333333333 81 3 664 1645 695 18 846 662 6
61 669 851 0 0 81 1 849 1438 788 517 0 661 846 852 853 83 3 850 .792156862745098
 .819607843137255 .933333333333333 81 3 661 1643 695 517 849 660 854 664 855 0 0
 81 1 852 1439 788 555 0 854 849 856 857 83 3 853 .792156862745098 .819607843137
255 .933333333333333 81 3 854 1641 695 555 852 659 858 661 859 0 0 81 1 856 1440
 788 562 0 858 852 860 861 83 3 857 .792156862745098 .819607843137255 .933333333
333333 81 3 858 1639 695 562 856 658 862 854 863 0 0 81 1 860 1441 788 569 0 862
 856 864 865 83 3 861 .792156862745098 .819607843137255 .933333333333333 81 3 86
2 1637 695 569 860 656 866 858 867 0 0 81 1 864 1442 788 578 0 866 860 868 869 8
3 3 865 .792156862745098 .819607843137255 .933333333333333 81 3 866 1635 695 578
 864 654 870 862 871 0 0 81 1 868 1443 788 560 0 870 864 872 873 83 3 869 .79215
6862745098 .819607843137255 .933333333333333 81 3 870 1633 695 560 868 652 874 8
66 875 0 0 81 1 872 1444 788 573 0 874 868 876 877 83 3 873 .792156862745098 .81
9607843137255 .933333333333333 81 3 874 1631 695 573 872 650 878 870 879 0 0 81
 1 876 1445 788 644 0 878 872 880 881 83 3 877 .792156862745098 .819607843137255
 .933333333333333 81 3 878 1629 695 644 876 647 882 874 883 0 0 81 1 880 1446 78
8 640 0 882 876 884 885 83 3 881 .792156862745098 .819607843137255 .933333333333
333 81 3 882 1627 695 640 880 643 886 878 887 0 0 81 1 884 1447 788 636 0 886 88
0 888 889 83 3 885 .792156862745098 .819607843137255 .933333333333333 81 3 886 1
625 695 636 884 639 890 882 891 0 0 81 1 888 1448 788 633 0 890 884 0 892 83 3 8
89 .792156862745098 .819607843137255 .933333333333333 81 3 890 1623 695 633 888
 635 893 886 894 0 0 83 3 892 .792156862745098 .819607843137255 .933333333333333
 81 1 635 1624 604 633 890 0 631 639 895 81 3 893 1621 695 524 896 631 897 890 8
98 0 0 82 6 894 0 2076185413 31051660 0 0 0 81 3 896 1620 899 524 793 893 900 0
 901 0 0 81 1 631 1622 604 524 893 0 629 635 902 81 3 897 1618 695 626 900 629 9
03 893 904 0 0 82 6 898 0 2076185413 31051660 0 0 0 81 3 900 1617 899 626 905 89
7 906 896 907 0 0 81 1 629 1619 604 626 897 0 625 631 908 81 3 903 1615 695 616
 906 625 909 897 910 0 0 82 6 904 0 2076185413 31051660 0 0 0 81 3 906 1614 899
 616 911 903 792 900 912 0 0 81 1 625 1616 604 616 903 0 623 629 913 81 3 909 16
12 695 564 792 623 914 903 915 0 0 82 6 910 0 2076185413 31051660 0 0 0 81 3 792
 1611 899 564 789 909 916 906 917 0 0 81 1 623 1613 604 564 909 0 614 625 918 81
 3 914 1609 695 580 916 614 613 909 919 0 0 82 6 915 0 2076185413 31051660 0 0 0
 81 3 916 1608 899 580 920 914 921 792 922 0 0 81 1 614 1610 604 580 914 0 611 6
23 923 81 3 613 1606 695 16 921 611 807 914 924 0 0 82 6 919 0 2076185413 310516
60 0 0 0 81 3 921 1605 899 16 925 613 0 916 926 0 0 82 6 924 0 1793044826 310516
60 0 0 0 80 3 899 927 928 9000 0 0 0 0 3 6 0 0 0 FFTTTTTTFFFFTTFF1 1 1 81 1 925
 1407 788 16 0 921 0 920 929 82 3 926 738924 2 0 81 1 920 1408 788 580 0 916 925
 911 930 83 3 929 .792156862745098 .819607843137255 .933333333333333 81 1 911 14
09 788 616 0 906 920 905 931 83 3 930 .792156862745098 .819607843137255 .9333333
33333333 81 1 905 1410 788 626 0 900 911 793 932 83 3 931 .792156862745098 .8196
07843137255 .933333333333333 81 1 793 1411 788 524 0 896 905 789 933 83 3 932 .7
92156862745098 .819607843137255 .933333333333333 83 3 933 .792156862745098 .8196
07843137255 .933333333333333 79 255 12 928 GENERIC_PERM82 1 923 396820595 82 3 9
22 738924 4 0 82 1 918 395509875 82 3 917 738924 3 0 82 1 913 396427379 82 3 912
 738924 4 0 82 1 908 396558451 82 3 907 738924 4 0 82 1 902 396689523 82 3 901 7
38924 4 0 81 1 639 1626 604 636 886 0 635 643 934 82 1 895 201916531 81 1 643 16
28 604 640 882 0 639 647 935 82 1 934 203423859 81 1 647 1630 604 644 878 0 643
 650 936 82 1 935 204275827 81 1 650 1632 604 573 874 0 647 652 937 82 1 936 205
455475 81 1 652 1634 604 560 870 0 650 654 938 82 1 937 206569587 81 1 654 1636
 604 578 866 0 652 656 939 82 1 938 207356019 81 1 656 1638 604 569 862 0 654 65
8 940 82 1 939 208207987 81 1 658 1640 604 562 858 0 656 659 941 82 1 940 209322
099 81 1 659 1642 604 555 854 0 658 660 942 82 1 941 210436211 82 1 942 21155032
3 82 6 891 0 2076185413 31051660 0 0 0 82 6 887 0 2076185413 31051660 0 0 0 82 6
 883 0 2076185413 31051660 0 0 0 82 6 879 0 2076185413 31051660 0 0 0 82 6 875 0
 2076185413 31051660 0 0 0 82 6 871 0 2076185413 31051660 0 0 0 82 6 867 0 20761
85413 31051660 0 0 0 82 6 863 0 2076185413 31051660 0 0 0 82 6 859 0 2076185413
 31051660 0 0 0 82 6 855 0 2076185413 31051660 0 0 0 82 6 851 0 2076185413 31051
660 0 0 0 82 6 848 0 2076185413 31051660 0 0 0 81 1 670 1650 604 667 841 0 665 6
77 943 82 6 845 0 1793044826 31051660 0 0 0 81 1 677 1652 604 672 837 0 670 680
 944 82 1 943 756547696 81 1 680 1654 604 584 833 0 677 682 945 82 1 944 7566787
68 81 1 682 1656 604 264 829 0 680 684 946 82 1 945 757399664 81 1 684 1658 604
 240 825 0 682 686 947 82 1 946 757596272 81 1 686 1660 604 526 821 0 684 688 94
8 82 1 947 757727344 82 1 948 723386483 82 6 842 0 1793044826 31051660 0 0 0 82
 6 838 0 1793044826 31051660 0 0 0 82 6 834 0 1793044826 31051660 0 0 0 82 6 830
 0 1793044826 31051660 0 0 0 82 6 826 0 2076185413 31051660 0 0 0 82 6 822 0 179
3044826 31051660 0 0 0 81 1 606 1602 604 533 810 0 602 609 949 82 6 816 0 179304
4826 31051660 0 0 0 81 1 609 1604 604 599 807 0 606 611 950 82 1 949 736559216 8
2 1 950 737083504 82 6 814 0 1793044826 31051660 0 0 0 82 6 811 0 1793044826 310
51660 0 0 0 83 3 794 .792156862745098 .819607843137255 .933333333333333 79 15 79
1 SDL/TYSA_COLOUR79 18 787 DOWNSTREAM_FACE_ID15 783 247 0 951 620 0 17 951 0 783
 131 419 101 100 387 0 0 -17 131 0 783 390 951 114 434 432 0 952 -17 419 0 783 9
51 390 98 953 405 0 417 +17 100 0 537 97 103 98 951 387 0 419 +17 97 0 537 954 1
00 95 417 392 0 415 -17 103 0 537 100 113 101 409 407 0 434 -17 113 0 537 103 10
9 111 412 410 0 409 -17 409 0 778 955 434 111 103 407 0 431 +17 434 0 778 409 95
2 101 131 432 0 951 +15 778 251 0 409 770 0 17 952 0 778 434 955 114 129 391 0 9
56 -17 955 0 778 952 409 127 431 429 0 957 -17 129 0 705 126 956 127 952 391 0 9
55 +17 956 0 705 129 117 114 390 388 0 0 -15 705 276 0 398 701 0 17 117 0 705 95
6 120 110 958 403 0 953 +17 390 0 783 419 131 110 956 388 0 0 +17 120 0 705 117
 123 118 959 401 0 960 +17 958 0 755 422 953 118 117 403 0 0 -17 953 0 755 958 4
17 110 419 405 0 390 -15 755 273 0 417 704 0 17 417 0 755 953 422 98 97 392 0 0
 +17 422 0 755 417 958 95 960 420 0 0 +17 960 0 763 959 415 118 422 420 0 958 -1
5 763 269 0 415 754 0 17 959 0 763 425 960 121 120 401 0 0 -17 415 0 763 960 425
 95 954 413 0 422 +17 425 0 763 415 959 104 961 423 0 0 +17 954 0 537 962 97 104
 415 413 0 425 -17 962 0 537 372 954 139 106 439 0 0 -17 372 0 537 369 962 142 9
63 370 0 0 +17 106 0 630 961 141 104 962 439 0 954 +15 630 1012 0 964 626 0 17 9
61 0 630 964 106 121 425 423 0 959 -17 141 0 630 106 965 139 159 379 0 963 +17 9
65 0 630 141 91 157 355 353 0 966 -17 159 0 726 352 963 157 141 379 0 965 -17 96
3 0 726 159 144 139 372 370 0 962 -15 726 446 0 963 718 0 17 144 0 726 963 352 1
42 162 381 0 967 +17 352 0 726 144 159 160 966 350 0 0 +17 162 0 734 349 967 160
 144 381 0 968 -17 967 0 734 162 147 142 369 367 0 372 -15 734 442 0 967 725 0 1
7 147 0 734 967 349 145 969 383 0 366 +17 369 0 537 543 372 145 967 367 0 0 +17
 349 0 734 147 162 163 968 347 0 0 +17 969 0 741 547 366 163 147 383 0 349 -17 3
66 0 741 969 150 145 543 364 0 369 +15 741 438 0 366 733 0 17 150 0 741 366 547
 148 167 385 0 544 +17 547 0 741 150 969 135 165 344 0 548 -17 165 0 549 968 548
 163 547 344 0 969 +17 968 0 549 966 165 160 349 347 0 352 -17 966 0 549 355 968
 157 352 350 0 0 -17 355 0 549 65 966 89 965 353 0 551 +17 91 0 630 965 82 89 55
6 446 0 355 +17 82 0 630 91 450 80 970 444 0 556 +17 450 0 630 82 964 83 971 448
 0 0 +17 970 0 648 972 493 83 82 444 0 450 -15 648 1197 0 493 644 0 17 972 0 648
 561 970 54 487 485 0 566 -17 493 0 648 970 561 80 558 491 0 0 +17 561 0 648 493
 972 45 475 473 0 0 -17 487 0 641 973 56 83 972 485 0 970 +17 566 0 645 974 490
 54 53 467 0 475 -15 645 1199 0 490 640 0 17 974 0 645 574 566 69 56 483 0 975 -
17 490 0 645 566 574 51 571 488 0 0 +17 574 0 645 490 974 72 71 453 0 0 -17 71 0
 627 79 74 69 574 453 0 974 +15 627 83 0 71 616 0 17 79 0 627 976 71 77 975 455
 0 398 +17 74 0 627 71 581 72 576 451 0 572 +17 581 0 627 74 977 75 227 271 0 57
6 -17 977 0 627 581 443 225 210 292 0 275 -17 227 0 252 259 24 225 581 271 0 977
 +17 259 0 252 242 227 222 275 273 0 260 -17 275 0 678 210 224 225 259 273 0 0 +
17 260 0 673 207 221 222 242 261 0 0 +15 673 836 0 978 667 0 17 207 0 673 978 26
0 205 224 290 0 979 +17 221 0 673 260 978 184 203 277 0 236 -17 978 0 673 221 20
7 201 288 262 0 243 -17 203 0 235 237 236 201 221 277 0 978 +17 288 0 537 286 24
3 205 978 262 0 0 +17 243 0 537 288 245 201 237 244 0 0 +17 245 0 537 243 283 21
7 247 279 0 0 +17 283 0 537 245 542 214 583 281 0 0 +17 247 0 246 233 219 214 24
5 279 0 283 -17 286 0 537 109 288 208 979 284 0 443 +17 109 0 537 113 286 107 44
3 441 0 412 -17 979 0 678 224 210 205 286 284 0 288 -17 443 0 627 977 428 208 10
9 441 0 0 +17 428 0 627 443 976 107 980 426 0 0 +17 976 0 627 428 79 124 398 396
 0 0 -17 980 0 771 957 412 124 428 426 0 976 -15 771 255 0 412 762 0 17 957 0 77
1 431 980 127 126 394 0 0 -17 412 0 771 980 431 107 113 410 0 428 +17 431 0 771
 412 957 111 955 429 0 0 +17 126 0 705 398 129 124 957 394 0 980 +17 398 0 705 8
8 126 77 976 396 0 981 +17 88 0 705 123 398 86 981 457 0 964 +17 981 0 637 975 9
71 77 88 457 0 0 -15 637 1203 0 981 633 0 17 975 0 637 85 981 69 79 455 0 973 -1
7 971 0 637 981 85 86 450 448 0 0 -17 85 0 637 971 975 83 973 481 0 487 +17 973
 0 641 56 487 69 85 481 0 0 -15 641 1201 0 56 636 0 17 56 0 641 487 973 54 974 4
83 0 972 +17 123 0 705 120 88 121 964 399 0 961 +17 964 0 630 450 961 86 123 399
 0 971 -15 678 832 0 979 672 0 17 224 0 678 275 979 222 207 290 0 259 -17 210 0
 678 979 275 208 977 292 0 286 +82 6 781 0 1793044826 31051660 0 0 0 50 621 283
 0 770 772 618 0 +0 -.083 .0479713635624898 0 0 1 1 0 0 50 772 284 0 762 764 621
 0 +-.0632415732163172 -.083 0 -1 0 0 0 0 1 50 764 287 0 754 756 772 0 +0 -.083
 .02797136356248985 0 0 1 1 0 0 50 756 288 0 704 706 764 0 +-.0832415732163172 -
.083 0 -1 0 0 0 0 1 50 706 290 0 701 748 756 0 +0 -.083 0 0 -1 0 0 0 -1 50 748 4
69 0 546 742 706 0 +0 -.083 -.0479713635624898 0 0 1 1 0 0 51 742 470 0 733 735
 748 0 +-.0822415732163172 -.083 -.0469713635624898 0 1 0 .001 0 0 1 50 735 471
 0 725 727 742 0 +-.0832415732163172 -.083 0 1 0 0 0 0 -1 50 727 472 0 718 719 7
35 0 +0 -.083 -.02797136356248985 0 0 1 1 0 0 50 719 475 0 540 712 727 0 +-.0632
415732163172 -.083 0 1 0 0 0 0 -1 50 712 477 0 550 610 719 0 +0 -.083 0 0 -1 0 0
 0 -1 51 610 657 0 599 603 712 0 -.0822415732163172 -.083 -.0469713635624898 0 1
 0 .001 0 0 1 82 6 775 0 1793044826 31051660 0 0 0 82 6 767 0 1793044826 3105166
0 0 0 0 82 6 759 0 1793044826 31051660 0 0 0 82 6 751 0 1793044826 31051660 0 0
 0 82 6 745 0 1793044826 31051660 0 0 0 82 6 738 0 1793044826 31051660 0 0 0 82
 6 730 0 1793044826 31051660 0 0 0 82 6 722 0 1793044826 31051660 0 0 0 82 6 715
 0 2076185413 31051660 0 0 0 82 6 709 0 2076185413 31051660 0 0 0 82 1 700 73551
0640 82 6 699 0 1793044826 31051660 0 0 0 79 14 694 SWEntUnchanged82 1 671 74442
3539 82 1 666 212992115 82 1 663 212598899 82 1 615 778633328 82 1 607 736821360
 19 17 100 0 1 0 9 5 0 S0 74 4 CI16 index_map_offset0 0 1 dCCZ20 15 12 0 0 896 7
80 776 982 983 984 985 986 987 13 888 2 0 0 0 0 0 0 0 0 81 5 982 175 988 1 0 983
 0 0 989 0 0 0 0 81 2 983 897 990 1 982 984 0 0 0 991 81 2 984 963 992 1 983 985
 0 0 0 993 81 2 985 964 994 1 984 986 0 0 995 0 81 1 986 1361 996 1 985 987 0 0
 997 81 2 987 1362 998 1 986 13 0 0 0 0 81 2 13 1406 999 1 987 2 0 0 1000 0 80 2
 999 1001 1002 8004 0 0 0 0 3 5 0 0 0 FFTFFFFFFFFFFFFF2 3 83 1 1000 1e3 79 16 10
02 SDL/TYSA_DENSITY80 2 998 1003 1004 9000 0 0 0 0 3 5 0 0 0 FFTFFFFFFFFFFFFF9 1
 79 16 1004 BODY_RECIPE_200180 1 996 1005 1006 9000 1 1 1 1 1 1 1 1 0 FFTFFFFFFF
FFFFFF1 82 1 997 5947 79 10 1006 BODY_MATCH80 2 994 1007 1008 9000 0 0 0 0 3 5 0
 0 0 FFTFTTTFFTFFFFFF3 3 84 255 7 995 Radyus179 21 1008 SWIMPLICITBODYNAME_ID80
 2 992 1009 1010 9000 0 0 0 0 3 5 0 0 0 FFTFFFFFFFFFFFFF9 1 82 1 993 103 79 30 1
010 LAST_BODY_MODIFYING_FEATURE_ID80 2 990 1011 1012 9000 0 0 0 0 3 5 0 0 0 FFTF
FFFFFFFFFFFF9 1 82 1 991 107 79 19 1012 ENT_TIME_STAMP_200180 5 988 1013 1014 90
00 0 0 0 0 3 6 0 0 0 FFTTTTTTFTTFTTFF2 2 2 2 2 83 1 989 1 79 19 1014 BODY_SCALIN
G_FACTOR80 2 12 1015 1016 9000 0 0 0 0 3 5 0 0 0 FFTFFFFFFFFFFFFF9 1 82 1 14 102
 79 12 1016 ATOM_ID_20011 0 
