**ABCDEFGHIJKLMNOPQRSTUVWXYZabcdefghijklmnopqrstuvwxyz**************************
**PARASOLID !"#$%&'()*+,-./:;<=>?@[\]^_`{|}~0123456789**************************
**PART1;
MC=AMD64;
MC_MODEL=Intel64 Family 6 Model 141 Stepping 1, GenuineIntel;
MC_ID=unknown;
OS=Windows_NT;
OS_RELEASE=unknown;
FRU=Parasolid Version 34.1, build 247, 10- 7-2022;
APPL=SOLIDWORKS 2023-2023096;
SITE=;
USER=unknown;
FORMAT=text;
GUISE=transmit;
KEY=su varili;
FILE=su varili.x_t;
DATE=Tue Aug 15 22:49:56 2023;
**PART2;
SCH=SCH_3401247_34101;
USFLD_SIZE=0;
**PART3;
**END_OF_HEADER*****************************************************************
T51 : TRANSMIT FILE created by modeller version 340124723 SCH_3401247_34101_1300
6231 0 12 36 CCCI7 lattice222 0 CCCI4 mesh1006 0 I8 polyline1008 0 CCCCCCCDI5 ow
ner1040 0 CCCI16 boundary_lattice222 0 CCCI13 boundary_mesh1006 0 I17 boundary_p
olyline1008 0 CCCA16 index_map_offset0 0 1 dA9 index_map82 0 A17 node_id_index_m
ap82 0 A20 schema_embedding_map82 0 A5 child12 0 A14 lowest_node_id0 0 1 dA16 me
sh_offset_data206 0 Z1 1119 2 3 0 0 0 0 0 0 0 1e3 1e-8 0 4 0 1 0 1 1 5 0 6 7 8 0
 0 9 10 11 0 0 0 0 0 0 0 81 255 2 2 1071 12 1 13 0 0 0 0 14 70 11 CI9 list_type0
 0 1 uI10 notransmit0 0 1 lCCCDCCDI12 finger_index0 0 1 dI12 finger_block1012 0
 CZ3 0 4 T1 0 0 12 20 1 15 15 13 255 5 34 0 1 0 16 0 0 17 0 50 255 6 63 0 16 18
 0 0 +-.1 0 0 -1 0 0 0 0 1 31 255 7 159 0 10 19 0 0 +-.06 0 0 1 0 0 0 0 -1 .038
 29 255 8 740 0 11 20 0 -.09 0 .04 19 9 CCCCCCI5 frame230 0 CA5 owner12 0 Z9 38
 0 1 17 0 21 0 V0 16 255 10 157 0 ?22 0 23 7 0 0 1 18 255 11 738 0 24 0 25 8 ?1
 17 255 24 0 26 27 28 11 29 30 0 31 -18 25 734 0 27 11 32 20 ?1 17 27 0 26 33 24
 25 31 34 0 35 +18 32 643 0 36 25 37 38 ?1 29 20 736 0 25 38 8 -.07 0 .04 29 38
 645 0 32 39 20 -.07 0 -.04 29 39 540 0 37 40 38 .09 0 -.04 18 37 538 0 41 32 42
 39 ?1 29 40 536 0 42 43 39 .07 0 -.04 18 42 534 0 44 37 45 40 ?1 29 43 426 0 45
 46 40 .07 0 .04 18 45 424 0 47 42 48 43 ?1 29 46 178 0 48 49 43 -.06 .038729833
4620742 -.01 18 48 176 0 50 45 51 46 ?1 29 49 144 0 51 52 46 -.09 .0366606055596
467 -.01 18 51 142 0 53 48 54 49 ?1 29 52 354 0 54 55 49 -.06 .0387298334620742
 .01 18 54 258 0 56 51 57 52 ?1 29 55 355 0 57 58 52 -.06 .0366606055596467 .01
 18 57 248 0 22 54 59 55 ?1 29 58 356 0 59 60 55 -.09 .0387298334620742 .01 18 5
9 260 0 61 57 62 58 ?1 29 60 357 0 62 63 58 -.09 .0366606055596467 .01 18 62 251
 0 64 59 65 60 ?1 29 63 359 0 65 66 60 -.09 .0387298334620742 -.01 18 65 261 0 6
7 62 68 63 ?1 29 66 362 0 68 69 63 -.06 .0366606055596467 -.01 18 68 259 0 70 65
 71 66 ?1 29 69 508 0 72 73 66 .07 -.04 .04 18 72 467 0 74 75 76 69 ?1 29 73 510
 0 71 77 69 .09 -.04 0 18 71 470 0 78 68 79 73 ?1 29 77 511 0 79 80 73 .09 -.04
 .04 18 79 469 0 81 71 75 77 ?1 29 80 512 0 75 82 77 .09 0 .04 18 75 465 0 83 79
 72 80 ?1 29 82 613 0 84 85 80 .07 -.04 -.04 18 84 574 0 86 76 87 82 ?1 29 85 61
4 0 87 88 82 .07 -.04 0 18 87 572 0 89 84 90 85 ?1 29 88 616 0 76 91 85 .09 -.04
 -.04 18 76 571 0 92 72 84 88 ?1 29 91 726 0 93 94 88 -.07 -.04 -.04 18 93 685 0
 95 96 97 91 ?1 29 94 728 0 90 98 91 -.09 -.04 0 18 90 688 0 99 87 100 94 ?1 29
 98 729 0 100 101 94 -.09 -.04 -.04 18 100 687 0 102 90 96 98 ?1 29 101 730 0 96
 103 98 -.09 0 -.04 18 96 683 0 104 100 93 101 ?1 29 103 813 0 105 106 101 -.07
 -.04 .04 18 105 774 0 107 97 108 103 ?1 29 106 814 0 108 109 103 -.07 -.04 0 18
 108 772 0 110 105 0 106 ?1 29 109 816 0 97 0 106 -.09 -.04 .04 18 97 771 0 111
 93 105 109 ?1 17 111 0 112 113 114 97 107 115 0 116 -15 255 112 700 0 117 118 0
 17 113 0 112 119 111 90 116 120 0 0 +17 114 0 112 111 117 105 121 122 0 123 -17
 107 0 124 125 126 105 111 115 0 114 +16 115 760 0 ?107 127 34 128 0 0 1 17 116
 0 129 130 29 97 113 120 0 126 -15 129 791 0 29 131 0 17 130 0 129 29 116 11 126
 132 0 0 -17 29 0 129 116 130 90 24 30 0 113 +16 120 753 0 ?113 132 30 133 0 0 1
 17 126 0 124 107 31 97 130 132 0 0 +15 124 787 0 125 134 0 17 31 0 124 126 125
 11 27 34 0 130 -16 132 757 0 ?126 34 120 135 0 0 1 16 34 752 0 ?27 115 132 136
 0 0 1 30 255 135 809 0 132 133 137 0 +-.09 0 .04 0 -1 0 30 133 810 0 120 138 13
5 0 +-.09 -.04 0 0 0 -1 31 137 808 0 139 135 140 0 +-.07 0 0 1 0 0 0 0 -1 .04 16
 139 749 0 ?33 122 0 137 0 0 1 30 140 807 0 122 137 141 0 +-.07 -.04 0 0 0 -1 16
 122 767 0 ?121 142 139 140 0 0 1 30 141 806 0 142 140 136 0 +-.07 0 .04 0 -1 0
 16 142 764 0 ?123 30 122 141 0 0 1 30 136 805 0 34 141 128 0 +-.09 0 .04 1 0 0
 30 128 804 0 115 136 143 0 +-.09 -.04 .04 1 0 0 31 143 724 0 144 128 145 0 +-.0
9 0 0 -1 0 0 0 0 1 .04 16 144 662 0 ?28 146 147 143 0 0 1 30 145 723 0 146 143 1
48 0 +-.09 0 -.04 0 -1 0 16 146 674 0 ?102 149 144 145 0 0 1 30 148 722 0 149 14
5 150 0 +-.09 -.04 0 0 0 1 16 149 677 0 ?99 151 146 148 0 0 1 31 150 721 0 127 1
48 152 0 +-.07 0 0 -1 0 0 0 0 1 .04 16 127 680 0 ?110 153 115 150 0 0 1 30 152 7
20 0 153 150 154 0 +-.07 0 -.04 0 -1 0 16 153 666 0 ?95 147 127 152 0 0 1 30 154
 719 0 147 152 155 0 +-.07 -.04 0 0 0 1 16 147 670 0 ?117 144 153 154 0 0 1 30 1
55 717 0 151 154 156 0 +-.09 -.04 -.04 1 0 0 16 151 673 0 ?157 158 149 155 0 0 1
 30 156 716 0 158 155 159 0 +-.09 0 -.04 1 0 0 16 158 669 0 ?160 161 151 156 0 0
 1 31 159 611 0 162 156 163 0 +.09 0 0 -1 0 0 0 0 1 .04 16 162 561 0 ?164 165 16
6 159 0 0 1 30 163 610 0 165 159 167 0 +.09 -.04 0 0 0 1 16 165 553 0 ?168 169 1
62 163 0 0 1 30 167 609 0 169 163 170 0 +.09 0 -.04 0 -1 0 16 169 557 0 ?171 172
 165 167 0 0 1 31 170 608 0 161 167 173 0 +.07 0 0 -1 0 0 0 0 1 .04 16 161 549 0
 ?174 175 158 170 0 0 1 30 173 607 0 175 170 176 0 +.07 -.04 0 0 0 1 16 175 567
 0 ?177 166 161 173 0 0 1 30 176 606 0 166 173 178 0 +.07 0 -.04 0 -1 0 16 166 5
64 0 ?179 162 175 176 0 0 1 30 178 605 0 172 176 180 0 +.09 0 -.04 -1 0 0 16 172
 552 0 ?44 181 169 178 0 0 1 30 180 604 0 181 178 182 0 +.09 -.04 -.04 -1 0 0 16
 181 560 0 ?86 183 172 180 0 0 1 31 182 506 0 184 180 185 0 +.09 0 0 1 0 0 0 0 -
1 .04 16 184 444 0 ?186 187 188 182 0 0 1 30 185 505 0 187 182 189 0 +.09 0 .04
 0 -1 0 16 187 456 0 ?81 190 184 185 0 0 1 30 189 504 0 190 185 191 0 +.09 -.04
 0 0 0 -1 16 190 459 0 ?78 192 187 189 0 0 1 31 191 503 0 183 189 193 0 +.07 0 0
 1 0 0 0 0 -1 .04 16 183 462 0 ?89 194 181 191 0 0 1 30 193 502 0 194 191 195 0
 +.07 0 .04 0 -1 0 16 194 448 0 ?74 188 183 193 0 0 1 30 195 501 0 188 193 196 0
 +.07 -.04 0 0 0 -1 16 188 452 0 ?197 184 194 195 0 0 1 30 196 499 0 192 195 198
 0 +.09 -.04 .04 -1 0 0 16 192 455 0 ?199 200 190 196 0 0 1 30 198 498 0 200 196
 201 0 +.09 0 .04 -1 0 0 16 200 451 0 ?202 203 192 198 0 0 1 30 201 344 0 204 19
8 205 0 +-.06 .03 .01 0 1 0 16 204 234 0 ?206 207 208 201 0 0 1 30 205 343 0 208
 201 209 0 +-.09 .03 .01 0 1 0 16 208 235 0 ?210 204 211 205 0 0 1 30 209 342 0
 211 205 212 0 +-.09 .03 -.01 0 1 0 16 211 236 0 ?213 208 203 209 0 0 1 30 212 3
41 0 203 209 214 0 +-.06 .03 -.01 0 1 0 16 203 233 0 ?215 211 200 212 0 0 1 30 2
14 340 0 207 212 216 0 -.1 .0387298334620742 -.01 1 0 0 16 207 226 0 ?67 217 204
 214 0 0 1 31 216 339 0 217 214 218 0 --.09 0 0 -1 0 0 0 0 1 .04 16 217 218 0 ?6
1 219 207 216 0 0 1 30 218 338 0 219 216 220 0 +.1 .0387298334620742 .01 1 0 0 1
6 219 211 0 ?56 221 217 218 0 0 1 31 220 337 0 221 218 222 0 --.06 0 0 1 0 0 0 0
 -1 .04 16 221 203 0 ?50 223 219 220 0 0 1 31 222 125 0 224 220 225 0 +.095 0 0
 1 0 0 0 0 -1 .038 16 224 101 0 ?226 227 223 222 0 0 1 31 225 124 0 223 222 228
 0 +-.095 0 0 1 0 0 0 0 -1 .038 16 223 104 0 ?229 224 221 225 0 0 1 31 228 64 0
 227 225 230 0 +.1 0 0 1 0 0 0 0 -1 .04 16 227 42 0 ?231 232 224 228 0 0 1 31 23
0 65 0 232 228 233 0 +-.1 0 0 1 0 0 0 0 -1 .04 16 232 47 0 ?234 235 227 230 0 0
 1 30 233 148 0 235 230 236 0 -.095 .0366606055596467 -.01 -1 0 0 16 235 146 0 ?
70 237 232 233 0 0 1 31 236 152 0 237 233 19 0 +-.09 0 0 -1 0 0 0 0 1 .038 16 23
7 150 0 ?238 23 235 236 0 0 1 30 19 156 0 23 236 7 0 +.095 .0366606055596467 .01
 -1 0 0 16 23 154 0 ?64 10 237 19 0 0 1 17 64 0 239 210 240 62 241 23 0 242 +15
 239 314 0 56 243 0 17 210 0 239 56 64 59 242 208 0 244 +17 240 0 239 64 56 57 2
06 204 0 241 -17 241 0 245 246 247 57 64 23 0 0 -17 242 0 248 238 61 62 210 208
 0 247 -15 248 318 0 61 249 0 17 238 0 248 213 242 51 247 237 0 250 +17 61 0 248
 242 213 59 251 217 0 210 +17 247 0 245 241 250 62 238 237 0 0 -15 245 158 0 246
 252 253 17 250 0 245 247 246 51 70 235 0 0 -17 246 0 245 250 241 68 22 10 0 0 -
17 70 0 254 215 53 68 250 235 0 255 +15 254 322 0 67 256 0 17 215 0 254 67 70 48
 255 203 0 257 +17 53 0 254 70 67 51 213 211 0 238 -17 255 0 258 22 50 68 215 20
3 0 246 -15 258 310 0 50 259 0 17 22 0 258 206 255 57 246 10 0 240 +17 50 0 258
 255 206 48 260 221 0 215 +17 206 0 258 50 22 54 240 204 0 260 +17 260 0 261 244
 257 54 50 221 0 0 -15 261 188 0 251 262 263 17 244 0 261 251 260 59 56 219 0 0
 -17 257 0 261 260 251 48 67 207 0 0 -17 251 0 261 257 244 65 61 217 0 0 -17 67
 0 254 53 215 65 257 207 0 213 +17 213 0 248 61 238 65 53 211 0 251 +17 56 0 239
 240 210 54 244 219 0 206 +14 255 262 50 264 ?265 16 26 5 18 +0 0 265 16 21 15 2
63 79 0 234 262 266 17 234 0 263 234 234 0 267 232 0 0 +15 266 49 0 268 262 0 17
 268 0 266 268 268 0 231 227 0 0 -17 231 0 269 231 231 0 268 227 0 0 +15 269 80
 0 231 265 0 14 265 45 270 ?259 262 269 5 271 +0 0 259 262 21 81 1 270 1075 272
 265 273 0 264 274 275 14 259 307 274 ?243 265 258 5 276 -0 0 243 265 21 50 271
 61 0 265 277 18 0 +.1 .04 0 1 0 0 0 0 -1 13 21 37 0 0 0 0 0 0 9 16 14 16 55 278
 ?262 0 279 5 6 +0 0 262 0 21 81 1 278 1079 272 16 280 0 274 281 282 15 279 54 0
 267 16 0 17 267 0 279 267 267 0 234 232 0 0 -80 7 CCCCCDI12 legal_owners0 16 1
 lCZ1 272 283 284 9000 1 1 1 1 1 1 1 1 0 FFFFTFTFFFFFFFFF1 81 3 280 1078 285 16
 286 278 287 288 289 0 0 81 1 274 1077 272 259 287 0 270 278 290 81 1 281 1081 2
72 291 288 0 278 292 293 82 255 1 282 -2064383707 14 291 693 281 ?118 294 295 5
 296 -0 0 118 294 21 81 3 288 1080 285 291 297 281 280 298 299 0 0 81 1 292 1083
 272 118 298 0 281 300 301 82 1 293 -1705770703 14 118 697 292 ?302 291 112 5 30
3 -0 0 302 291 21 81 3 298 1082 285 118 304 292 288 305 306 0 0 81 1 300 1085 27
2 302 305 0 292 307 308 82 1 301 -1706032847 14 302 701 300 ?309 118 310 5 311 +
0 0 309 118 21 81 3 305 1084 285 302 312 300 298 313 314 0 0 81 1 307 1087 272 3
09 313 0 300 315 316 82 1 308 -1711996623 14 309 705 307 ?134 302 317 5 318 -0 0
 134 302 21 81 3 313 1086 285 309 319 307 305 320 321 0 0 81 1 315 1089 272 134
 320 0 307 322 323 82 1 316 -1706884815 14 134 784 315 ?131 309 124 5 324 +0 0 1
31 309 21 81 3 320 1088 285 134 325 315 313 326 327 0 0 81 1 322 1091 272 131 32
6 0 315 328 329 82 1 323 -1687879375 14 131 788 322 ?330 134 129 5 331 +0 0 330
 134 21 81 3 326 1090 285 131 332 322 320 333 334 0 0 81 1 328 1093 272 330 333
 0 322 335 336 82 1 329 -1693843151 14 330 792 328 ?0 131 337 5 338 -0 0 0 131 2
1 81 3 333 1092 285 330 339 328 326 340 341 0 0 81 1 335 1095 272 294 340 0 328
 342 343 82 1 336 -1688731343 14 294 592 335 ?291 344 345 5 346 -0 0 291 344 21
 81 3 340 1094 285 294 347 335 333 348 349 0 0 81 1 342 1097 272 344 348 0 335 3
50 351 82 1 343 2064122159 14 344 588 342 ?294 352 353 5 354 +0 0 294 352 21 81
 3 348 1096 285 344 355 342 340 356 357 0 0 81 1 350 1099 272 352 356 0 342 358
 359 82 1 351 2059010351 14 352 584 350 ?344 360 361 5 362 +0 0 344 360 21 81 3
 356 1098 285 352 363 350 348 364 365 0 0 81 1 358 1101 272 360 364 0 350 366 36
7 82 1 359 2064974127 14 360 487 358 ?352 368 369 5 370 -0 0 352 368 21 81 3 364
 1100 285 360 371 358 356 372 373 0 0 81 1 366 1103 272 368 372 0 358 374 375 82
 1 367 -1949564627 14 368 483 366 ?360 376 377 5 378 +0 0 360 376 21 81 3 372 11
02 285 368 379 366 364 380 381 0 0 81 1 374 1105 272 376 380 0 366 382 383 82 1
 375 -1954676433 14 376 479 374 ?368 384 385 5 386 -0 0 368 384 21 81 3 380 1104
 285 376 387 374 372 388 389 0 0 81 1 382 1107 272 384 388 0 374 390 391 82 1 38
3 -1948712657 14 384 475 382 ?376 392 393 5 394 -0 0 376 392 21 81 3 388 1106 28
5 384 395 382 380 396 397 0 0 81 1 390 1109 272 256 396 0 382 398 399 82 1 391 -
1948450515 14 256 319 390 ?252 249 254 5 400 -0 0 252 249 21 81 3 396 1108 285 2
56 401 390 388 402 403 0 0 81 1 398 1111 272 249 402 0 390 404 405 82 1 399 -202
7683542 14 249 315 398 ?256 243 248 5 406 -0 0 256 243 21 81 3 402 1110 285 249
 407 398 396 408 409 0 0 81 1 404 1113 272 243 408 0 398 410 411 82 1 405 -20278
14614 14 243 311 404 ?249 259 239 5 412 -0 0 249 259 21 81 3 408 1112 285 243 41
3 404 402 414 415 0 0 81 1 410 1115 272 392 414 0 404 416 417 82 1 411 -20279456
86 14 392 115 410 ?384 418 419 5 420 +0 0 384 418 21 81 3 414 1114 285 392 421 4
10 408 422 423 0 0 81 1 416 1117 272 418 422 0 410 424 425 82 1 417 -2053766872
 14 418 112 416 ?392 252 426 5 427 -0 0 392 252 21 81 3 422 1116 285 418 428 416
 414 429 430 0 0 81 1 424 1119 272 252 429 0 416 0 431 82 1 425 -2055470808 14 2
52 107 424 ?418 256 245 5 277 +0 0 418 256 21 81 3 429 1118 285 252 432 424 422
 0 433 0 0 82 1 431 -2053504726 80 3 285 434 435 9000 0 0 0 0 3 5 0 0 0 FFFFTFFF
FFFFFFFF1 1 1 81 1 432 979 436 252 0 429 401 428 437 82 6 433 0 1636274838 31051
697 0 0 0 80 1 436 0 438 8001 0 0 0 0 3 5 0 0 0 FFFFTFTFFFFFFFFF2 81 1 401 978 4
36 256 0 396 407 432 439 81 1 428 980 436 418 0 422 432 421 440 83 255 3 437 .79
2156862745098 .819607843137255 .933333333333333 81 1 421 981 436 392 0 414 428 3
95 441 83 3 440 .792156862745098 .819607843137255 .933333333333333 81 1 395 982
 436 384 0 388 421 387 442 83 3 441 .792156862745098 .819607843137255 .933333333
333333 81 1 387 983 436 376 0 380 395 379 443 83 3 442 .792156862745098 .8196078
43137255 .933333333333333 81 1 379 984 436 368 0 372 387 371 444 83 3 443 .79215
6862745098 .819607843137255 .933333333333333 81 1 371 985 436 360 0 364 379 363
 445 83 3 444 .792156862745098 .819607843137255 .933333333333333 81 1 363 986 43
6 352 0 356 371 355 446 83 3 445 .792156862745098 .819607843137255 .933333333333
333 81 1 355 987 436 344 0 348 363 347 447 83 3 446 .792156862745098 .8196078431
37255 .933333333333333 81 1 347 988 436 294 0 340 355 297 448 83 3 447 .79215686
2745098 .819607843137255 .933333333333333 81 1 297 989 436 291 0 288 347 304 449
 83 3 448 .792156862745098 .819607843137255 .933333333333333 81 1 304 990 436 11
8 0 298 297 312 450 83 3 449 .792156862745098 .819607843137255 .933333333333333
 81 1 312 991 436 302 0 305 304 319 451 83 3 450 .792156862745098 .8196078431372
55 .933333333333333 81 1 319 992 436 309 0 313 312 325 452 83 3 451 .79215686274
5098 .819607843137255 .933333333333333 81 1 325 993 436 134 0 320 319 332 453 83
 3 452 .792156862745098 .819607843137255 .933333333333333 81 1 332 994 436 131 0
 326 325 339 454 83 3 453 .792156862745098 .819607843137255 .933333333333333 81
 1 339 995 436 330 0 333 332 0 455 83 3 454 .792156862745098 .819607843137255 .9
33333333333333 83 3 455 .792156862745098 .819607843137255 .933333333333333 81 1
 407 977 436 249 0 402 413 401 456 83 3 439 .792156862745098 .819607843137255 .9
33333333333333 81 1 413 976 436 243 0 408 457 407 458 83 3 456 .792156862745098
 .819607843137255 .933333333333333 81 1 457 975 436 259 0 287 459 413 460 83 3 4
58 .792156862745098 .819607843137255 .933333333333333 81 3 287 1076 285 259 457
 274 273 280 461 0 0 81 1 459 974 436 265 0 273 462 457 463 83 3 460 .7921568627
45098 .819607843137255 .933333333333333 81 3 273 1074 285 265 459 270 464 287 46
5 0 0 81 1 462 973 436 262 0 464 286 459 466 83 3 463 .792156862745098 .81960784
3137255 .933333333333333 81 3 464 1072 285 262 462 264 0 273 467 0 0 81 1 286 97
2 436 16 0 280 0 462 468 83 3 466 .792156862745098 .819607843137255 .93333333333
3333 83 3 468 .792156862745098 .819607843137255 .933333333333333 81 1 264 1073 2
72 262 464 0 0 270 469 82 6 467 0 -2136625865 31051697 0 0 0 82 1 469 -206497351
9 82 6 465 0 1612777212 31051697 0 0 0 82 6 461 0 1636274838 31051697 0 0 0 79 2
55 15 438 SDL/TYSA_COLOUR79 18 435 DOWNSTREAM_FACE_ID51 255 277 121 0 252 420 27
1 0 -.095 0 0 -1 0 0 .038 0 0 1 50 420 122 0 392 427 277 0 +-.095 0 0 1 0 0 0 0
 -1 50 427 123 0 418 276 420 0 +.095 0 0 1 0 0 0 0 -1 50 276 331 0 259 400 427 0
 +-.06 .03 -.01 1 0 0 0 0 -1 50 400 332 0 256 406 276 0 +-.09 .03 -.01 0 0 -1 -1
 0 0 50 406 333 0 249 412 400 0 +-.09 .03 -.01 -1 0 0 0 0 1 50 412 334 0 243 394
 406 0 +-.09 .03 .01 0 0 1 1 0 0 50 394 494 0 384 386 412 0 +.09 0 .04 0 0 -1 -1
 0 0 50 386 495 0 376 370 394 0 +.09 -.04 0 0 1 0 0 0 1 50 370 496 0 360 378 386
 0 +.07 0 0 1 0 0 0 0 -1 50 378 497 0 368 362 370 0 +.09 0 0 1 0 0 0 0 -1 50 362
 600 0 352 346 378 0 +.09 0 -.04 0 0 -1 -1 0 0 50 346 601 0 294 354 362 0 +.07 0
 0 1 0 0 0 0 1 50 354 602 0 344 296 346 0 +.09 0 0 1 0 0 0 0 1 50 296 712 0 291
 303 354 0 +-.09 0 -.04 0 0 1 1 0 0 50 303 713 0 118 318 296 0 +-.09 -.04 0 0 1
 0 0 0 1 50 318 714 0 309 311 303 0 +-.07 0 0 -1 0 0 0 0 1 50 311 715 0 302 324
 318 0 +-.09 0 0 -1 0 0 0 0 1 50 324 800 0 134 338 311 0 +-.09 0 .04 0 0 1 1 0 0
 50 338 801 0 330 331 324 0 +-.07 0 0 -1 0 0 0 0 -1 50 331 802 0 131 0 338 0 +-.
09 0 0 -1 0 0 0 0 -1 82 6 430 0 1625767548 31051697 0 0 0 15 426 114 0 470 418 0
 17 470 0 426 470 470 0 226 224 0 0 -17 226 0 253 226 226 0 470 224 0 0 +15 253
 110 0 226 252 471 15 471 111 0 472 252 0 17 472 0 471 472 472 0 229 223 0 0 -17
 229 0 419 229 229 0 472 223 0 0 +15 419 117 0 229 392 0 82 6 423 0 1625767548 3
1051697 0 0 0 82 6 415 0 1636274838 31051697 0 0 0 82 6 409 0 1636274838 3105169
7 0 0 0 82 6 403 0 1636274838 31051697 0 0 0 82 6 397 0 1652336699 31051697 0 0
 0 15 393 478 0 74 384 0 17 74 0 393 473 202 72 47 194 0 199 +17 473 0 393 83 74
 79 199 192 0 474 -17 202 0 393 74 83 45 475 200 0 476 +17 47 0 369 89 477 45 74
 194 0 202 -17 199 0 385 197 474 72 473 192 0 477 +15 385 482 0 197 376 0 17 197
 0 385 478 199 87 477 188 0 174 +17 474 0 385 199 168 79 78 190 0 0 -17 477 0 36
9 47 89 72 197 188 0 0 -15 369 490 0 89 360 0 17 89 0 369 477 47 87 476 183 0 19
7 +17 476 0 479 475 174 45 89 183 0 0 -15 479 543 0 41 262 261 17 475 0 479 186
 476 75 202 200 0 0 -17 174 0 479 476 44 87 480 161 0 177 +17 44 0 479 174 41 42
 481 172 0 480 +17 480 0 345 179 177 42 174 161 0 482 -17 177 0 345 480 179 87 4
78 175 0 0 +15 345 595 0 480 294 0 17 179 0 345 177 480 84 482 166 0 0 +17 478 0
 385 92 197 84 177 175 0 179 -17 92 0 385 168 478 76 86 181 0 483 -17 168 0 385
 474 92 71 483 165 0 0 +17 86 0 361 482 171 84 92 181 0 478 +17 483 0 353 484 16
4 76 168 165 0 171 -15 353 591 0 164 344 0 17 484 0 353 164 483 37 171 169 0 0 -
17 164 0 353 483 484 71 41 162 0 168 +17 171 0 361 86 481 76 484 169 0 0 +15 361
 587 0 482 352 0 17 481 0 361 171 482 37 44 172 0 484 -17 482 0 361 481 86 42 17
9 166 0 0 -17 41 0 479 44 186 37 164 162 0 481 -17 186 0 479 41 475 71 485 184 0
 164 +17 485 0 377 81 78 75 186 184 0 475 -15 377 486 0 485 368 0 17 81 0 377 78
 485 79 83 187 0 473 +17 78 0 377 485 81 71 474 190 0 186 +17 83 0 393 202 473 7
5 81 187 0 485 -82 6 389 0 2054717029 31051697 0 0 0 82 6 381 0 1652336699 31051
697 0 0 0 82 6 373 0 1652336699 31051697 0 0 0 82 6 365 0 2054717029 31051697 0
 0 0 82 6 357 0 2054717029 31051697 0 0 0 82 6 349 0 2054717029 31051697 0 0 0 8
2 6 341 0 -2136625865 31051697 0 0 0 15 337 795 0 35 330 0 17 35 0 337 123 121 2
5 33 139 0 125 -17 123 0 337 121 35 105 125 142 0 0 +17 121 0 337 35 123 108 114
 122 0 0 +17 33 0 26 486 27 108 35 139 0 121 +17 125 0 124 31 107 25 123 142 0 0
 -15 26 743 0 24 262 479 17 486 0 26 487 33 32 110 127 0 0 -17 487 0 26 28 486 9
6 160 158 0 0 -17 110 0 317 488 36 108 486 127 0 117 +15 317 708 0 110 309 0 17
 488 0 317 36 110 93 117 147 0 0 -17 36 0 317 110 488 32 95 153 0 160 -17 117 0
 112 114 157 108 488 147 0 33 +17 157 0 112 117 119 93 489 151 0 488 +17 119 0 1
12 157 113 100 99 149 0 0 -17 489 0 295 104 95 100 157 151 0 119 -15 295 696 0 9
5 291 0 17 104 0 295 160 489 96 102 146 0 490 -17 95 0 295 489 160 93 36 153 0 1
57 +17 160 0 295 95 104 32 487 158 0 486 +17 102 0 310 99 490 100 104 146 0 489
 +17 490 0 310 102 99 96 28 144 0 487 -15 310 704 0 490 302 0 17 99 0 310 490 10
2 90 119 149 0 28 +17 28 0 26 24 487 90 490 144 0 29 +82 6 334 0 -2136625865 310
51697 0 0 0 82 6 327 0 -2136625865 31051697 0 0 0 82 6 321 0 -2136625865 3105169
7 0 0 0 82 6 314 0 -2136625865 31051697 0 0 0 82 6 306 0 -2136625865 31051697 0
 0 0 82 6 299 0 -2136625865 31051697 0 0 0 82 1 290 -2027552470 82 6 289 0 16127
77212 31051697 0 0 0 79 14 284 SWEntUnchanged51 18 62 0 262 271 6 0 +.1 0 0 1 0
 0 .04 0 0 -1 82 1 275 -2065563355 16 30 761 0 ?29 120 142 138 0 0 1 31 138 811
 0 30 0 133 0 +-.09 0 0 1 0 0 0 0 -1 .04 19 17 33 0 1 0 9 5 0 S0 74 4 CI16 index
_map_offset0 0 1 dCCZ20 15 12 0 0 429 424 491 492 493 494 495 496 497 13 339 2 0
 0 0 0 0 0 0 0 81 5 491 442 498 1 0 492 0 0 499 0 0 0 0 81 2 492 820 500 1 491 4
93 0 0 0 501 81 2 493 821 502 1 492 494 0 0 0 0 81 2 494 822 503 1 493 495 0 0 0
 504 81 2 495 823 505 1 494 496 0 0 506 0 81 1 496 847 507 1 495 497 0 0 508 81
 2 497 874 509 1 496 13 0 0 510 0 81 2 13 971 511 1 497 2 0 0 0 512 80 2 511 513
 514 9000 0 0 0 0 3 5 0 0 0 FFTFFFFFFFFFFFFF9 1 82 1 512 1 79 24 514 BODY_IN_LIG
HTWEIGHT_PERM80 2 509 515 516 8004 0 0 0 0 3 5 0 0 0 FFTFFFFFFFFFFFFF2 3 83 1 51
0 1 79 16 516 SDL/TYSA_DENSITY80 1 507 517 518 9000 1 1 1 1 1 1 1 1 0 FFTFFFFFFF
FFFFFF1 82 1 508 1082544 79 10 518 BODY_MATCH80 2 505 519 520 9000 0 0 0 0 3 5 0
 0 0 FFTFTTTFFTFFFFFF3 3 84 255 9 506 Aynalama279 21 520 SWIMPLICITBODYNAME_ID80
 2 503 521 522 9000 0 0 0 0 3 5 0 0 0 FFTFFFFFFFFFFFFF9 1 82 1 504 124 79 30 522
 LAST_BODY_MODIFYING_FEATURE_ID80 2 502 523 524 9000 0 0 0 0 3 5 0 0 0 FFTFFFFFF
FFFFFFF9 1 79 16 524 BODY_RECIPE_200180 2 500 525 526 9000 0 0 0 0 3 5 0 0 0 FFT
FFFFFFFFFFFFF9 1 82 1 501 135 79 19 526 ENT_TIME_STAMP_200180 5 498 527 528 9000
 0 0 0 0 3 6 0 0 0 FFTTTTTTFTTFTTFF2 2 2 2 2 83 1 499 1 79 19 528 BODY_SCALING_F
ACTOR80 2 12 529 530 9000 0 0 0 0 3 5 0 0 0 FFTFFFFFFFFFFFFF9 1 82 1 14 107 79 1
2 530 ATOM_ID_20011 0 
