**ABCDEFGHIJKLMNOPQRSTUVWXYZabcdefghijklmnopqrstuvwxyz**************************
**PARASOLID !"#$%&'()*+,-./:;<=>?@[\]^_`{|}~0123456789**************************
**PART1;
MC=AMD64;
MC_MODEL=Intel64 Family 6 Model 141 Stepping 1, GenuineIntel;
MC_ID=unknown;
OS=Windows_NT;
OS_RELEASE=unknown;
FRU=Parasolid Version 34.1, build 247, 10- 7-2022;
APPL=SOLIDWORKS 2023-2023096;
SITE=;
USER=unknown;
FORMAT=text;
GUISE=transmit;
KEY=çeki. baþý;
FILE=çeki. baþý.x_t;
DATE=Tue Aug 15 16:33:21 2023;
**PART2;
SCH=SCH_3401247_34101;
USFLD_SIZE=0;
**PART3;
**END_OF_HEADER*****************************************************************
T51 : TRANSMIT FILE created by modeller version 340124723 SCH_3401247_34101_1300
6231 0 12 36 CCCI7 lattice222 0 CCCI4 mesh1006 0 I8 polyline1008 0 CCCCCCCDI5 ow
ner1040 0 CCCI16 boundary_lattice222 0 CCCI13 boundary_mesh1006 0 I17 boundary_p
olyline1008 0 CCCA16 index_map_offset0 0 1 dA9 index_map82 0 A17 node_id_index_m
ap82 0 A20 schema_embedding_map82 0 A5 child12 0 A14 lowest_node_id0 0 1 dA16 me
sh_offset_data206 0 Z1 1063 2 3 0 0 0 0 0 0 0 1e3 1e-8 0 4 0 1 0 1 1 5 0 6 7 8 0
 0 9 10 11 0 0 0 0 0 0 0 81 255 2 2 1031 12 1 13 0 0 0 0 14 70 11 CI9 list_type0
 0 1 uI10 notransmit0 0 1 lCCCDCCDI12 finger_index0 0 1 dI12 finger_block1012 0
 CZ3 0 4 T1 0 0 12 20 1 15 15 13 255 5 162 0 1 0 16 0 0 17 0 51 255 6 769 0 18 1
9 0 0 +-.002 .01857864376269045 -.030001 0 0 1 .002 1 0 0 31 255 7 747 0 10 20 0
 0 --.002 .01857864376269045 -.03 1156482317317872e-31 0 1 1 0 -1156482317317872
e-31 .002 29 255 8 738 0 11 21 0 -.001351351351351344 .02047053565458235 -.03 19
 9 CCCCCCI5 frame230 0 CA5 owner12 0 Z9 54 0 1 17 0 22 0 V0 16 255 10 745 0 ?23
 0 24 7 0 0 1 18 255 11 736 0 25 0 26 8 ?1 17 255 25 0 27 28 29 11 30 24 0 31 +1
8 26 727 0 32 11 33 21 ?1 17 32 0 34 35 36 26 37 38 0 29 +18 33 718 0 37 26 39 4
0 ?1 29 21 729 0 26 40 8 -.001351351351351344 .02047053565458235 .03 29 40 720 0
 33 41 21 0 .01857864376269045 .03 29 41 717 0 39 42 40 0 .01857864376269045 -.0
3 18 39 715 0 23 33 43 41 ?1 29 42 439 0 43 44 41 -.15 -.00961795736232005 .0214
359353944899 18 43 437 0 45 39 46 42 ?1 29 44 123 0 46 47 42 -.15 -.03 -.0214359
353944899 18 46 108 0 48 43 49 44 ?1 29 47 125 0 49 50 44 0 -.03 -.03 18 49 110
 0 51 46 52 47 ?1 29 50 126 0 52 53 47 0 -.03 .03 18 52 111 0 54 49 55 50 ?1 29
 53 335 0 55 56 50 -.07 -.01202041028867284 857252759403147e-32 18 55 285 0 57 5
2 58 53 ?1 29 56 337 0 58 59 53 -.03 -.03 -.03 18 58 287 0 60 55 61 56 ?1 29 59
 339 0 61 62 56 -.03 -.03 .03 18 61 288 0 63 58 64 59 ?1 29 62 340 0 64 65 59 -.
15 -.03 .03 18 64 286 0 66 61 67 62 ?1 29 65 341 0 67 68 62 -.15 -.03 .021435935
3944899 18 67 289 0 69 64 70 65 ?1 29 68 342 0 70 71 65 -.15 -.03 -.03 18 70 292
 0 72 67 73 68 ?1 29 71 605 0 73 74 68 -.07 .0272393312358756 857252759403147e-3
2 18 73 530 0 75 70 76 71 ?1 29 74 608 0 76 77 71 -.15 -.00961795736232002 -.021
4359353944899 18 76 531 0 78 73 79 74 ?1 29 77 609 0 79 80 74 -.15 -.00961795736
232002 -.03 18 79 532 0 28 76 81 77 ?1 29 80 614 0 81 0 77 -.15 -.00961795736232
002 .03 18 81 535 0 82 79 0 80 ?1 17 82 0 27 29 45 81 83 84 0 35 +15 255 27 556
 0 29 85 0 17 29 0 27 25 82 26 35 86 0 30 +17 45 0 27 82 75 43 87 88 0 83 +17 83
 0 89 69 90 43 82 84 0 91 -16 84 507 0 ?82 92 86 93 92 92 1 17 35 0 34 66 32 81
 29 86 0 90 -15 34 146 0 36 16 0 17 66 0 34 94 35 64 90 95 0 96 +16 86 522 0 ?29
 84 97 98 0 0 1 17 90 0 89 83 99 81 66 95 0 0 -15 89 134 0 90 100 0 17 99 0 89 9
0 69 64 101 102 0 0 +16 95 435 0 ?66 103 102 104 0 0 1 16 103 438 0 ?69 105 95 1
06 0 0 1 16 102 77 0 ?99 95 107 108 0 0 1 30 255 104 155 0 95 108 106 0 +-.15 .0
3 .03 0 -1 0 30 108 113 0 102 109 104 0 +-.15 -.03 .03 0 0 1 30 106 156 0 103 10
4 110 0 +-.15 .03 .0214359353944899 0 -1 0 30 110 157 0 105 106 111 0 +-.07 .03
 857252759403147e-32 0 -1 0 16 105 447 0 ?57 112 103 110 0 0 1 30 111 158 0 112
 110 113 0 +-.15 .03 -.0214359353944899 0 -1 0 16 112 456 0 ?48 114 105 111 0 0
 1 30 113 159 0 114 111 115 0 +-.15 .03 -.03 0 -1 0 16 114 465 0 ?72 116 112 113
 0 0 1 30 115 160 0 116 113 117 0 +0 .03 -.03 0 -1 0 16 116 716 0 ?51 118 114 11
5 0 0 1 30 117 161 0 118 115 119 0 +0 .03 .03 0 -1 0 16 118 719 0 ?54 120 116 11
7 0 0 1 30 119 723 0 120 117 121 0 +0 .01857864376269045 -.03 0 0 1 16 120 721 0
 ?122 38 118 119 0 0 1 31 121 732 0 38 119 20 0 --.002 .01857864376269045 .03 11
56482317317872e-31 0 -1 -1 0 -1156482317317872e-31 .002 16 38 730 0 ?32 24 120 1
21 0 0 1 30 20 741 0 24 121 7 0 --.001351351351351338 .0204705356545824 -.030001
 0 0 1 16 24 739 0 ?25 10 38 20 0 0 1 17 122 0 123 54 124 33 125 120 0 36 +15 12
3 144 0 124 126 0 17 54 0 123 127 122 52 36 118 0 128 +17 124 0 123 122 127 39 5
1 116 0 125 -17 125 0 129 130 37 39 122 120 0 0 -17 36 0 34 32 128 33 54 118 0 0
 -17 128 0 34 36 94 52 131 132 0 133 +17 94 0 34 128 66 61 96 134 0 131 -17 131
 0 135 136 133 61 128 132 0 0 -16 132 230 0 ?128 137 138 139 0 0 1 17 133 0 135
 131 140 52 127 137 0 0 -15 135 236 0 136 141 0 17 140 0 135 133 136 49 142 143
 0 0 -17 127 0 123 124 54 49 133 137 0 140 +16 137 97 0 ?127 143 132 144 0 0 1 1
6 143 93 0 ?142 107 137 145 0 0 1 30 144 118 0 137 139 145 0 +0 -.03 -.03 0 0 -1
 30 139 119 0 132 146 144 0 +0 -.03 .03 1 0 1156482317317872e-31 30 145 117 0 14
3 144 109 0 +0 -.03 -.03 -1 0 1156482317317872e-31 30 109 116 0 107 145 108 0 +-
.15 -.03 -.03 0 0 1 16 107 89 0 ?147 102 143 109 0 0 1 17 147 0 148 149 72 46 15
0 107 0 0 +15 148 140 0 149 151 0 17 149 0 148 152 147 76 48 112 0 0 -17 72 0 14
8 147 152 70 153 114 0 150 +17 150 0 154 60 155 70 147 107 0 156 -15 154 304 0 6
0 157 0 17 60 0 154 63 150 58 156 158 0 136 +17 155 0 154 150 159 46 160 161 0 1
47 +17 156 0 162 153 142 70 60 158 0 0 -15 162 142 0 31 163 0 17 153 0 162 31 15
6 79 72 114 0 0 -17 142 0 162 156 51 58 140 143 0 0 +16 158 284 0 ?60 134 161 16
4 0 0 1 16 134 277 0 ?96 138 158 165 0 0 1 16 161 272 0 ?155 158 166 167 0 0 1 3
1 164 328 0 158 167 165 0 --.09 -.11 -.03 1156482317317872e-31 0 1 1 0 -11564823
17317872e-31 .1 32 255 167 329 0 161 168 164 0 --.09 -.11 -.00535898384862247 .2
588190451025215 0 -.965925826289068 .965925826289068 0 .2588190451025215 .103527
6180410082 .1 31 165 327 0 134 164 146 0 +-.09 -.11 .03 0 0 1 1 0 0 .1 30 146 32
5 0 138 165 139 0 +-.03 -.03 -.030001 0 0 1 16 138 276 0 ?63 132 134 146 0 0 1 1
7 63 0 154 96 60 61 136 138 0 94 +17 96 0 154 101 63 64 94 134 0 99 +17 136 0 13
5 140 131 58 63 138 0 142 -17 101 0 154 159 96 67 99 102 0 169 -17 159 0 154 155
 101 55 169 166 0 160 +17 169 0 170 91 57 67 159 166 0 0 -15 170 136 0 91 171 0
 17 91 0 170 87 169 43 69 103 0 0 -17 57 0 170 169 87 55 172 105 0 159 +16 166 2
70 0 ?159 161 173 168 0 0 1 16 173 366 0 ?174 166 175 176 0 0 1 32 168 330 0 166
 176 167 0 --.09 -.11 .0053589838486225 .258819045102522 0 .965925826289068 -.96
5925826289068 0 .258819045102522 .1035276180410082 .1 31 176 401 0 173 177 168 0
 +.035 -.005 0 -1 0 0 0 0 1 .025 31 177 402 0 175 178 176 0 +.04 -.005 0 -1 0 0
 0 0 1 .02 16 175 367 0 ?179 173 180 177 0 0 1 31 178 403 0 180 181 177 0 +0 -.0
05 0 -1 0 0 0 0 1 .015 16 180 368 0 ?182 175 183 178 0 0 1 31 181 404 0 183 184
 178 0 +.02 -.005 0 -1 0 0 0 0 1 .015 16 183 369 0 ?185 180 186 181 0 0 1 31 184
 405 0 186 93 181 0 +.02 -.005 0 -1 0 0 0 0 1 .025 16 186 370 0 ?187 183 92 184
 0 0 1 30 93 588 0 84 98 184 0 +-.15 -.00961795736232002 -.030001 0 0 1 31 98 59
0 0 86 188 93 0 +-.05 -.1214213562373094 .03 0 0 -1 1 0 0 .15 31 188 594 0 97 18
9 98 0 +-.05 -.1214213562373094 -.03 1156482317317872e-31 0 1 1 0 -1156482317317
872e-31 .15 16 97 737 0 ?28 86 190 188 0 0 1 32 189 595 0 190 191 188 0 +-.05 -.
1214213562373094 .00535898384862248 .2588190451025215 0 -.965925826289068 .96592
5826289068 0 .2588190451025215 .1552914270615125 .15 16 190 501 0 ?75 97 88 189
 0 0 1 32 191 596 0 88 0 189 0 +-.05 -.1214213562373094 -.00535898384862246 .258
819045102522 0 .965925826289068 -.965925826289068 0 .258819045102522 .1552914270
615125 .15 16 88 499 0 ?45 190 0 191 0 0 1 17 75 0 27 45 78 73 192 190 0 87 +17
 78 0 27 75 28 76 152 92 0 192 +17 192 0 193 48 172 76 75 190 0 149 -17 87 0 170
 57 91 73 45 88 0 172 -17 172 0 193 192 160 73 57 105 0 0 -15 193 138 0 172 194
 0 17 160 0 193 172 48 55 155 161 0 0 -17 48 0 193 160 192 46 149 112 0 155 +14
 255 194 139 195 ?171 151 193 5 196 -0 0 171 151 22 81 1 195 1033 197 194 198 0
 0 199 200 14 171 137 199 ?100 194 170 5 201 -0 0 100 194 22 14 151 141 202 ?194
 163 148 5 203 -0 0 194 163 22 50 255 196 150 0 194 201 203 0 +-.15 .03 -.021435
9353944899 .2588190451025215 0 -.965925826289068 -.965925826289068 0 -.258819045
1025215 13 22 55 0 0 0 0 0 0 9 16 14 16 147 204 ?126 0 34 5 19 -0 0 126 0 22 81
 1 204 1039 197 16 205 0 202 206 207 14 126 145 206 ?163 16 208 5 209 -0 0 163 1
6 22 50 19 154 0 16 209 6 0 +0 .03 .03 1156482317317872e-31 0 -1 -1 0 -115648231
7317872e-31 50 209 153 0 126 210 19 0 +0 .03 -.03 -1 0 0 0 0 1 50 210 152 0 163
 203 209 0 +0 .03 -.03 1156482317317872e-31 0 1 1 0 -1156482317317872e-31 14 163
 143 211 ?151 126 162 5 210 -0 0 151 126 22 50 203 151 0 151 196 210 0 +-.15 .03
 -.03 1 0 0 0 0 -1 81 1 211 1043 197 163 212 0 206 213 214 80 7 CCCCCDI12 legal_
owners0 16 1 lCZ1 197 215 216 9000 1 1 1 1 1 1 1 1 0 FFFFTFTFFFFFFFFF1 81 3 212
 1042 217 163 218 211 219 220 221 0 0 81 1 206 1041 197 126 219 0 204 211 222 81
 1 213 1045 197 100 220 0 211 223 224 82 255 1 214 -1181613943 14 100 135 213 ?1
41 171 89 5 225 -0 0 141 171 22 81 3 220 1044 217 100 226 213 212 227 228 0 0 81
 1 223 1047 197 141 227 0 213 229 230 82 1 224 -1182662525 14 141 75 223 ?157 10
0 135 5 231 +0 0 157 100 22 81 3 227 1046 217 141 232 223 220 233 234 0 0 81 1 2
29 1049 197 157 233 0 223 235 236 82 1 230 -1184169871 14 157 301 229 ?237 141 1
54 5 238 -0 0 237 141 22 81 3 233 1048 217 157 239 229 227 240 241 0 0 81 1 235
 1051 197 237 240 0 229 242 243 82 1 236 110166129 14 237 371 235 ?244 157 245 5
 246 +0 0 244 157 22 81 3 240 1050 217 237 247 235 233 248 249 0 0 81 1 242 1053
 197 244 248 0 235 250 251 82 1 243 -1478164353 14 244 375 242 ?252 237 253 5 25
4 +0 0 252 237 22 81 3 248 1052 217 244 255 242 240 256 257 0 0 81 1 250 1055 19
7 252 256 0 242 258 259 82 1 251 -1478492033 14 252 379 250 ?260 244 261 5 262 +
0 0 260 244 22 81 3 256 1054 217 252 263 250 248 264 265 0 0 81 1 258 1057 197 2
60 264 0 250 266 267 82 1 259 -1479081857 14 260 385 258 ?268 252 269 5 270 +0 0
 268 252 22 81 3 264 1056 217 260 271 258 256 272 273 0 0 81 1 266 1059 197 268
 272 0 258 274 275 82 1 267 -1480851329 14 268 389 266 ?85 260 276 5 277 +0 0 85
 260 22 81 3 272 1058 217 268 278 266 264 279 280 0 0 81 1 274 1061 197 85 279 0
 266 281 282 82 1 275 -1481441153 14 85 553 274 ?18 268 27 5 283 -0 0 18 268 22
 81 3 279 1060 217 85 284 274 272 285 286 0 0 81 1 281 1063 197 18 285 0 274 0 2
87 82 1 282 1847918729 14 18 757 281 ?0 85 129 5 6 +0 0 0 85 22 81 3 285 1062 21
7 18 288 281 279 0 289 0 0 82 1 287 848494729 80 3 217 290 291 9000 0 0 0 0 3 5
 0 0 0 FFFFTFFFFFFFFFFF1 1 1 81 1 288 981 292 18 0 285 284 0 293 82 6 289 0 -129
2608252 31048837 0 0 0 80 1 292 0 294 8001 0 0 0 0 3 5 0 0 0 FFFFTFTFFFFFFFFF2 8
1 1 284 980 292 85 0 279 278 288 295 83 255 3 293 .792156862745098 .819607843137
255 .933333333333333 81 1 278 979 292 268 0 272 271 284 296 83 3 295 .7921568627
45098 .819607843137255 .933333333333333 81 1 271 978 292 260 0 264 263 278 297 8
3 3 296 .792156862745098 .819607843137255 .933333333333333 81 1 263 977 292 252
 0 256 255 271 298 83 3 297 .792156862745098 .819607843137255 .933333333333333 8
1 1 255 976 292 244 0 248 247 263 299 83 3 298 .792156862745098 .819607843137255
 .933333333333333 81 1 247 975 292 237 0 240 239 255 300 83 3 299 .7921568627450
98 .819607843137255 .933333333333333 81 1 239 974 292 157 0 233 232 247 301 83 3
 300 .792156862745098 .819607843137255 .933333333333333 81 1 232 973 292 141 0 2
27 226 239 302 83 3 301 .792156862745098 .819607843137255 .933333333333333 81 1
 226 972 292 100 0 220 303 232 304 83 3 302 .792156862745098 .819607843137255 .9
33333333333333 81 1 303 971 292 171 0 305 306 226 307 83 3 304 .792156862745098
 .819607843137255 .933333333333333 81 3 305 1034 217 171 303 199 198 308 309 0 0
 81 1 306 970 292 194 0 198 310 303 311 83 3 307 .792156862745098 .8196078431372
55 .933333333333333 81 3 198 1032 217 194 306 195 0 305 312 0 0 81 1 310 969 292
 151 0 308 218 306 313 83 3 311 .792156862745098 .819607843137255 .9333333333333
33 81 3 308 1036 217 151 310 202 305 205 314 0 0 81 1 218 968 292 163 0 212 315
 310 316 83 3 313 .792156862745098 .819607843137255 .933333333333333 81 1 315 96
7 292 126 0 219 317 218 318 83 3 316 .792156862745098 .819607843137255 .93333333
3333333 81 3 219 1040 217 126 315 206 205 212 319 0 0 81 1 317 966 292 16 0 205
 0 315 320 83 3 318 .792156862745098 .819607843137255 .933333333333333 81 3 205
 1038 217 16 317 204 308 219 321 0 0 83 3 320 .792156862745098 .819607843137255
 .933333333333333 82 6 321 0 -1292608252 31048837 0 0 0 82 6 319 0 -1292608252 3
1048837 0 0 0 81 1 202 1037 197 151 308 0 199 204 322 82 6 314 0 1085475046 3104
8837 0 0 0 81 1 199 1035 197 171 305 0 195 202 323 82 1 322 -1181876093 82 1 323
 -1182400381 82 6 312 0 1085475046 31048837 0 0 0 82 6 309 0 1085475046 31048837
 0 0 0 79 255 15 294 SDL/TYSA_COLOUR79 18 291 DOWNSTREAM_FACE_ID15 129 758 0 130
 18 0 17 130 0 129 30 125 11 23 10 0 0 -17 30 0 129 37 130 26 25 24 0 0 -17 23 0
 162 51 31 39 130 10 0 124 +17 51 0 162 142 23 49 124 116 0 127 +17 31 0 162 23
 153 11 28 97 0 130 -17 28 0 27 78 25 79 31 97 0 152 +17 152 0 148 72 149 79 78
 92 0 153 -16 92 505 0 ?78 186 84 93 84 84 1 17 37 0 129 125 30 33 32 38 0 122 -
82 6 286 0 -1292608252 31048837 0 0 0 51 283 581 0 85 0 277 0 --.05 -.1214213562
373094 -.030001 0 0 1 .15 1 0 0 50 277 400 0 268 283 270 0 +.02 0 0 -1 0 0 0 0 1
 51 270 399 0 260 277 262 0 +0 -.005 0 -1 0 0 .015 0 0 1 50 262 397 0 252 270 25
4 0 +.04 0 0 1 0 0 0 0 -1 54 255 254 396 0 244 262 246 0 +.035 -.005 0 -1 0 0 .0
2 .005 0 0 1 51 246 395 0 237 254 238 0 +0 -.005 0 -1 0 0 .025 0 0 1 51 238 318
 0 157 246 231 0 +-.09 -.11 -.030001 0 0 1 .1 1 0 0 50 231 112 0 141 238 225 0 +
0 -.03 0 0 -1 0 0 0 -1 50 225 148 0 100 231 201 0 +-.15 .03 .03 1 0 0 0 0 -1 50
 201 149 0 171 225 196 0 +-.15 .03 .0214359353944899 .258819045102522 0 .9659258
26289068 .965925826289068 0 -.258819045102522 82 6 280 0 -565931632 31048836 0 0
 0 15 276 391 0 187 268 324 17 187 0 276 187 187 0 325 186 0 0 +15 324 392 0 326
 268 0 17 326 0 324 326 326 0 185 183 0 0 -17 185 0 269 185 185 0 326 183 0 0 +1
5 269 387 0 185 260 327 15 327 388 0 328 260 0 17 328 0 327 328 328 0 182 180 0
 0 -17 182 0 208 182 182 0 328 180 0 0 +15 208 359 0 182 126 123 17 325 0 329 32
5 325 0 187 186 0 0 -15 329 374 0 325 237 0 82 6 273 0 -565931632 31048836 0 0 0
 82 6 265 0 -565931632 31048836 0 0 0 15 261 381 0 330 252 0 17 330 0 261 330 33
0 0 179 175 0 0 -17 179 0 253 179 179 0 330 175 0 0 +15 253 377 0 179 244 331 15
 331 378 0 332 244 0 17 332 0 331 332 332 0 174 173 0 0 -17 174 0 245 174 174 0
 332 173 0 0 +15 245 373 0 174 237 329 82 6 257 0 -565931632 31048836 0 0 0 82 6
 249 0 -565931632 31048836 0 0 0 82 6 241 0 -2144387485 31048835 0 0 0 82 6 234
 0 -2144387485 31048835 0 0 0 82 6 228 0 1085475046 31048837 0 0 0 82 1 222 -118
1351799 82 6 221 0 -1292608252 31048837 0 0 0 79 14 216 SWEntUnchanged82 1 207 -
1181089655 82 1 200 -1182138237 17 69 0 89 99 83 67 91 103 0 101 +19 17 163 0 1
 0 9 5 0 S0 74 4 CI16 index_map_offset0 0 1 dCCZ20 15 12 0 0 285 281 333 334 335
 336 337 338 339 13 288 2 0 0 0 0 0 0 0 0 81 5 333 364 340 1 0 334 0 0 341 0 0 0
 0 81 2 334 406 342 1 333 335 0 0 0 343 81 2 335 419 344 1 334 336 0 0 0 345 81
 2 336 420 346 1 335 337 0 0 347 0 81 1 337 783 348 1 336 338 0 0 349 81 2 338 8
01 350 1 337 339 0 0 351 0 81 2 339 911 352 1 338 13 0 0 0 353 81 2 13 914 354 1
 339 2 0 0 0 0 80 2 354 355 356 9000 0 0 0 0 3 5 0 0 0 FFTFFFFFFFFFFFFF9 1 79 16
 356 BODY_RECIPE_200180 2 352 357 358 9000 0 0 0 0 3 5 0 0 0 FFTFFFFFFFFFFFFF9 1
 82 1 353 1 79 24 358 BODY_IN_LIGHTWEIGHT_PERM80 2 350 359 360 8004 0 0 0 0 3 5
 0 0 0 FFTFFFFFFFFFFFFF2 3 83 1 351 1 79 16 360 SDL/TYSA_DENSITY80 1 348 361 362
 9000 1 1 1 1 1 1 1 1 0 FFTFFFFFFFFFFFFF1 82 1 349 2078941 79 10 362 BODY_MATCH8
0 2 346 363 364 9000 0 0 0 0 3 5 0 0 0 FFTFTTTFFTFFFFFF3 3 84 255 7 347 Radyus17
9 21 364 SWIMPLICITBODYNAME_ID80 2 344 365 366 9000 0 0 0 0 3 5 0 0 0 FFTFFFFFFF
FFFFFF9 1 82 1 345 199 79 30 366 LAST_BODY_MODIFYING_FEATURE_ID80 2 342 367 368
 9000 0 0 0 0 3 5 0 0 0 FFTFFFFFFFFFFFFF9 1 82 1 343 113 79 19 368 ENT_TIME_STAM
P_200180 5 340 369 370 9000 0 0 0 0 3 6 0 0 0 FFTTTTTTFTTFTTFF2 2 2 2 2 83 1 341
 1 79 19 370 BODY_SCALING_FACTOR80 2 12 371 372 9000 0 0 0 0 3 5 0 0 0 FFTFFFFFF
FFFFFFF9 1 82 1 14 105 79 12 372 ATOM_ID_20011 0 
